<?xml version="1.0" standalone="no"?>
<!DOCTYPE svg PUBLIC "-//W3C//DTD SVG 1.1//EN" "http://www.w3.org/Graphics/SVG/1.1/DTD/svg11.dtd" >
<svg xmlns="http://www.w3.org/2000/svg" xmlns:xlink="http://www.w3.org/1999/xlink" version="1.1">
<metadata></metadata>
<defs>
<font id="bellotabold_italic" horiz-adv-x="1277" >
<font-face units-per-em="2048" ascent="1638" descent="-410" />
<missing-glyph horiz-adv-x="638" />
<glyph unicode="&#xfb01;" horiz-adv-x="1083" d="M-35 -518l207 1462q31 232 115 356q113 148 282 148q88 0 152 -35.5t96 -95.5l-129 -111q-17 49 -45 69.5t-78 20.5q-106 0 -164 -104l2 -2q-53 -83 -75 -248l-2 -4h534l-106 -760v-10q0 -10 6 -25q10 -8 24 -8q22 0 32.5 8.5t27.5 34.5l125 -92q-39 -57 -95 -84h3 q-40 -22 -99 -22q-91 0 -137 65q-43 43 -43 111q0 20 2 30l84 602h-379l-184 -1306h-156z" />
<glyph unicode="&#xfb02;" horiz-adv-x="1126" d="M-14 -522l204 1462q34 227 117 356q111 148 305 148q114 0 190 -52.5t93 -142.5q10 -38 10 -75q0 -19 -2 -29l-135 -965q0 -4 -1 -8l-1 -4q0 -9 6 -21q15 -10 27 -10q20 0 31.5 9t27.5 34l125 -92q-38 -54 -90 -86q-58 -20 -98 -20q-94 0 -140 65q-43 43 -43 111 q0 20 2 30l136 961q0 4 1 13.5t1 13.5q0 60 -35 88t-105 28q-60 0 -97.5 -17.5t-68.5 -55.5q-67 -67 -84 -199l-71 -475h295l-21 -150h-295l-129 -917h-155z" />
<glyph horiz-adv-x="0" />
<glyph horiz-adv-x="682" />
<glyph unicode=" "  horiz-adv-x="638" />
<glyph unicode="&#x09;" horiz-adv-x="638" />
<glyph unicode="&#xa0;" horiz-adv-x="638" />
<glyph unicode="!" horiz-adv-x="436" d="M229 274h-149l145 1172h187zM49 190q43 0 73 -30t30 -72t-37 -77.5t-80 -35.5q-41 0 -69.5 30.5t-28.5 70.5q0 44 35 79t77 35z" />
<glyph unicode="&#x22;" horiz-adv-x="686" d="M616 979h-147l37 428h192zM344 977h-149l36 428h195z" />
<glyph unicode="#" horiz-adv-x="1245" d="M963 1008h227l-21 -150h-227l-49 -342h227l-20 -151h-228l-43 -306h-155l43 306h-287l-43 -306h-156l43 306h-231l20 151h228l49 342h-227l20 150h227l43 305h160l-43 -305h283l43 305h160zM500 858l-49 -342h282l49 342h-282z" />
<glyph unicode="$" horiz-adv-x="1138" d="M766 1536l-29 -176q105 -13 189 -53q112 -44 186 -109l-102 -129q-59 43 -142 88q-62 27 -145 41l-70 -436q93 -30 144.5 -55.5t93.5 -65.5q104 -87 104 -227q0 -40 -4 -60q-24 -173 -160 -276q-115 -75 -278 -92l-23 -125h-161l22 123q-238 25 -391 163l104 129 q147 -109 302 -133l77 504q-146 50 -202 123q-82 79 -82 205q0 173 125 282q104 80 251 101l29 178h162zM500 821l63 383q-97 -18 -145.5 -77t-48.5 -138q0 -60 32 -102q46 -43 99 -66zM639 594l-74 -455q98 13 154 60q108 68 108 207q0 68 -47 112q-51 39 -141 76z" />
<glyph unicode="%" horiz-adv-x="1562" d="M352 1096q116 0 185 -68t69 -182q0 -83 -30 -148.5t-78.5 -104t-104 -58t-112.5 -19.5q-114 0 -184 68t-70 182q0 17 4 49q10 71 43 126.5t78.5 88.5t96 49.5t103.5 16.5zM477 20h-174l602 1043h170zM346 950q-71 0 -118.5 -53.5t-47.5 -130.5q0 -48 29 -77.5t80 -29.5 q72 0 118 52.5t46 132.5q0 50 -27.5 78t-79.5 28zM1108 608q116 0 185 -68t69 -182q0 -67 -20 -123t-53 -93t-76 -63.5t-87.5 -38t-89.5 -11.5q-114 0 -184 68t-70 182q0 17 4 49q10 71 43 126.5t78.5 88t96.5 49t104 16.5zM1102 463q-71 0 -118.5 -53.5t-47.5 -130.5 q0 -48 28.5 -77.5t79.5 -29.5q72 0 118 52t46 132q0 50 -27 78.5t-79 28.5z" />
<glyph unicode="&#x26;" horiz-adv-x="1325" d="M1036 -16l-157 159q-92 -80 -207.5 -121.5t-233.5 -41.5q-175 0 -276 87t-101 236q0 7 5 64q18 122 88.5 216t167.5 152q-56 104 -56 187q0 17 4 53q10 67 40 123t71 94t91.5 64.5t100 38.5t95.5 12q113 0 192 -63.5t90 -143.5l-123 -90q-24 79 -68 109t-104 30 q-91 0 -150 -55t-59 -156q0 -64 52 -143l391 -414q37 61 65 136t37 140l15 99h153l-16 -111q-30 -216 -154 -377l162 -168zM778 250l-354 366q-92 -43 -146.5 -125.5t-54.5 -179.5q0 -86 59 -133t167 -47q87 0 173.5 30.5t155.5 88.5z" />
<glyph unicode="'" horiz-adv-x="444" d="M332 977h-150l37 428h195z" />
<glyph unicode="(" horiz-adv-x="796" d="M741 1546l66 -131q-107 -51 -206.5 -144.5t-172.5 -205.5q-156 -224 -190 -467q-9 -62 -9 -125q0 -179 60 -338q100 -234 284 -340l-86 -123q-258 146 -358 420q-70 165 -70 359q0 72 13 161q40 286 196 531q189 267 473 403z" />
<glyph unicode=")" horiz-adv-x="796" d="M-170 1438l66 131q143 -68 264 -173.5t209 -230.5q156 -245 196 -530q13 -89 13 -162q0 -193 -70 -358q-100 -274 -358 -420l-87 123q185 107 285 340q60 159 60 338q0 64 -9 125q-34 242 -190 466q-73 113 -172.5 206.5t-206.5 144.5z" />
<glyph unicode="*" horiz-adv-x="813" d="M549 1204l209 80l26 -162l-202 -53l106 -154l-147 -96l-90 176l-142 -180l-127 103l146 153l-191 51l76 162l190 -78l19 219h170z" />
<glyph unicode="+" horiz-adv-x="919" d="M535 680h313l-23 -150h-313l-45 -319h-160l45 319h-313l22 150h314l43 317h160z" />
<glyph unicode="," horiz-adv-x="442" d="M63 129v2q4 36 31.5 60t61.5 24q42 0 64.5 -30t17.5 -62l-7 -41q-8 -80 -41 -160q-49 -71 -141 -131l-98 100q61 44 80 93q16 29 26 84q0 6 2.5 27t3.5 34z" />
<glyph unicode="-" horiz-adv-x="927" d="M758 549h-637l22 162h637z" />
<glyph unicode="." horiz-adv-x="471" d="M156 207q42 0 72 -30.5t30 -72.5t-37 -77t-80 -35q-41 0 -69.5 30t-28.5 70q0 44 35.5 79.5t77.5 35.5z" />
<glyph unicode="/" horiz-adv-x="741" d="M115 -139h-178l684 1675h174z" />
<glyph unicode="0" horiz-adv-x="1359" d="M762 1364q116 0 209 -46t151.5 -125t89.5 -182t31 -220q0 -59 -10 -134q-19 -136 -74 -258t-137.5 -215.5t-196 -148.5t-241.5 -55q-118 0 -211.5 45t-151.5 123.5t-88.5 180t-30.5 218.5q0 51 11 133q15 107 52 207.5t95.5 187t133 151t169.5 101.5t199 37zM760 1206 q-126 0 -229.5 -77.5t-165 -198.5t-82.5 -266q-9 -88 -9 -113q0 -117 33.5 -209t107 -149.5t179.5 -57.5q97 0 181 46.5t142 124.5t96.5 174.5t53.5 201.5q8 55 8 117q0 118 -33 207.5t-105.5 144.5t-176.5 55z" />
<glyph unicode="1" horiz-adv-x="782" d="M727 1378l-192 -1380h-168l159 1112q-152 -106 -311 -100l-27 153q10 -2 27 -2q21 0 41 2.5t44 10.5t42.5 14t48 21.5t47.5 24.5t54.5 31t55 33t63 39t65.5 41h51z" />
<glyph unicode="2" horiz-adv-x="1130" d="M293 963l-131 79q153 326 487 326q175 0 270 -84.5t95 -232.5q0 -18 -4 -64q-10 -72 -39.5 -135t-65 -108.5t-94 -96t-105.5 -83t-121.5 -84.5t-121.5 -87q-177 -122 -234 -233h729l-22 -162h-913l8 55q11 82 46.5 156t95 140.5t123.5 121t153 117.5q16 11 61 39.5t65 42 t60 41t60 46t50.5 47t46.5 53t33 54.5t24 62.5t7 66.5q0 84 -56.5 132.5t-156.5 48.5q-121 0 -214 -68.5t-136 -189.5z" />
<glyph unicode="3" horiz-adv-x="1171" d="M346 1112l-72 137q116 79 197 106t184 27q163 0 271 -82t108 -213q0 -92 -57.5 -183.5t-151.5 -141.5q28 -12 43 -33q66 -43 105 -123.5t39 -175.5q0 -106 -46 -194t-121.5 -144t-169.5 -86.5t-194 -30.5q-162 0 -279 61.5t-188 153.5l113 121q53 -60 94.5 -94.5t103 -58 t138.5 -23.5q146 0 252.5 71.5t124.5 196.5q2 12 2 37q0 104 -76 162.5t-186 63.5h-246l22 159h236q93 0 179.5 76t86.5 170q0 70 -60 111t-147 41q-157 0 -305 -111z" />
<glyph unicode="4" horiz-adv-x="1128" d="M236 410h428l61 442h172l-61 -442h165l-22 -160h-166l-37 -256h-172l37 256h-631l17 127l551 981h188z" />
<glyph unicode="5" horiz-adv-x="1093" d="M938 1184l-543 -8l-43 -269q108 15 150 15q210 0 336.5 -106t126.5 -286q0 -29 -7 -73q-29 -204 -181 -336.5t-347 -132.5q-132 0 -240.5 55.5t-148.5 108.5l49 145q103 -84 171.5 -118t156.5 -34q159 0 258.5 95.5t120.5 246.5q4 40 4 56q0 121 -86.5 170t-251.5 49 q-160 0 -266 -45l-31 24l80 588l715 14z" />
<glyph unicode="6" horiz-adv-x="1196" d="M1020 1335l-14 -153q-232 7 -412 -123q-137 -84 -248 -258l-2 -10q136 88 285 88q180 0 300 -122t120 -300q0 -37 -5 -66q-28 -192 -185 -328.5t-355 -136.5q-197 0 -315.5 136.5t-118.5 347.5q0 48 6 100q22 151 102 303.5t203 273.5q136 124 300.5 189t338.5 59z M623 727q-75 0 -147.5 -33.5t-125.5 -86.5t-85 -121.5t-32 -137.5q0 -111 77.5 -190.5t199.5 -79.5q98 0 188 51t145.5 138.5t55.5 187.5q0 116 -78.5 194t-197.5 78z" />
<glyph unicode="7" horiz-adv-x="1028" d="M1036 1300l-696 -1302h-182l641 1178h-658l21 157l878 10z" />
<glyph unicode="8" horiz-adv-x="1165" d="M662 1370q155 0 257.5 -88t102.5 -219q0 -190 -199 -324q83 -46 133 -124t50 -183q0 -36 -5 -65q-26 -183 -170 -291.5t-344 -108.5q-191 0 -307.5 97.5t-116.5 261.5q0 11 5 61q17 120 86.5 210t181.5 167q-109 83 -109 221q0 29 2 43q14 98 77 177t156.5 122t199.5 43z M655 811l11 -2q47 32 74 53t56.5 52t42.5 65.5t13 75.5q0 70 -53 113.5t-140 43.5q-111 0 -186.5 -65.5t-75.5 -161.5q0 -52 31.5 -81.5t95.5 -51.5zM520 682l-33 4q-134 -100 -184.5 -162t-62.5 -147q-4 -32 -4 -45q0 -100 66.5 -154.5t189.5 -54.5q143 0 235 72.5 t109 195.5q2 14 2 39q0 45 -17 81t-42 59.5t-71 45.5t-84.5 35t-103.5 31z" />
<glyph unicode="9" horiz-adv-x="1193" d="M150 -74l14 152q231 -6 424 139q151 100 252 272q-157 -106 -310 -106q-171 0 -290 124t-119 300q0 17 4 63q27 189 185.5 327t357.5 138q197 0 313.5 -135.5t116.5 -345.5q0 -57 -8 -106q-23 -157 -102 -306.5t-195 -265.5q-133 -124 -298.5 -190t-344.5 -60zM549 535 q101 0 192 55.5t144 143.5t53 181q0 115 -80 192t-201 77q-95 0 -183.5 -48t-145 -135t-56.5 -190q0 -117 78 -196.5t199 -79.5z" />
<glyph unicode=":" horiz-adv-x="489" d="M227 1012q42 0 72.5 -30.5t30.5 -72.5t-37 -77t-80 -35q-41 0 -69.5 30t-28.5 70q0 44 35 79.5t77 35.5zM117 229q42 0 72 -30t30 -72t-37 -77.5t-80 -35.5q-41 0 -69.5 30.5t-28.5 70.5q0 44 35.5 79t77.5 35z" />
<glyph unicode=";" horiz-adv-x="456" d="M227 1012q42 0 72.5 -30.5t30.5 -72.5t-37 -77t-80 -35q-41 0 -69.5 30t-28.5 70q0 44 35 79.5t77 35.5zM25 152v2q4 36 31 60t61 24q42 0 64.5 -30.5t17.5 -62.5l-6 -41q-8 -79 -41 -159q-48 -70 -142 -131l-98 100q62 44 80 92q16 29 26 84q0 6 3 27t4 35z" />
<glyph unicode="&#x3c;" horiz-adv-x="833" d="M723 817l-418 -264l346 -268l-108 -135l-525 399l629 401z" />
<glyph unicode="=" horiz-adv-x="972" d="M885 688h-746l21 152h745zM840 371h-746l23 151h745z" />
<glyph unicode="&#x3e;" horiz-adv-x="833" d="M768 549l-629 -402l-78 134l418 264l-346 268l111 137z" />
<glyph unicode="?" horiz-adv-x="980" d="M346 1135l14 -150q-4 0 -11.5 -1t-16.5 -1q-85 0 -130.5 44.5t-45.5 115.5q0 60 29.5 112t75.5 85.5t104 58t113.5 35t105.5 10.5q162 0 262 -108t100 -267q0 -17 -4 -63q-12 -93 -55 -170q-30 -48 -78 -92t-74.5 -61.5t-85.5 -53.5l-51 -27t-47.5 -25.5t-39.5 -22.5 t-36.5 -23.5t-28.5 -22t-26 -24.5t-17.5 -26t-14.5 -31t-7 -34q-2 -12 -2 -43q0 -33 2 -51l-148 -25q-6 41 -6 78q0 16 4 56q6 39 18.5 73.5t25.5 59t38.5 51t41.5 41t52 37.5t52.5 32.5t58.5 32.5q78 37 131.5 74.5t89.5 93.5q60 77 60 158q0 92 -65.5 160.5t-168.5 68.5 q-84 0 -168.5 -40t-91.5 -93q0 -5 1 -8.5t3 -5.5t5 -4t5 -2.5t7 -1t7 -0.5h7h6zM324 207q44 0 76 -34t32 -77q0 -47 -39 -87t-86 -40q-45 0 -77.5 33.5t-32.5 79.5q0 47 40.5 86t86.5 39z" />
<glyph unicode="@" horiz-adv-x="1458" d="M1044 123l35 -141q-211 -103 -446 -103q-250 0 -402.5 135t-152.5 377q0 59 8 111q40 282 232 457.5t466 175.5q248 0 395.5 -140.5t147.5 -365.5q0 -43 -6 -90q-23 -168 -114.5 -267.5t-225.5 -99.5q-68 0 -117 26t-69 76q-87 -75 -185 -75q-103 0 -169 80.5t-66 199.5 q0 85 32 158t82 119t109 72t115 26q29 0 71 -6l66 -4h113l-62 -438q3 -97 80 -97q72 0 122.5 69t65.5 179q7 44 7 74q0 165 -107 263.5t-287 98.5q-218 0 -364.5 -142.5t-177.5 -367.5q-7 -54 -7 -90q0 -176 108 -273t310 -97q109 0 216.5 27t176.5 73zM795 707h-86 q-80 0 -134.5 -64.5t-54.5 -163.5q0 -133 94 -133q74 0 129 88l15 23z" />
<glyph unicode="A" horiz-adv-x="1673" d="M1413 -2h-174l-125 453h-555l-188 -342q-29 -55 -84.5 -86t-110.5 -31q-81 0 -138 58t-48 136l160 23q0 -28 6.5 -40.5t27.5 -12.5q17 0 26 6.5t17 21.5l705 1225h69zM924 1106l2 6zM1067 610l-139 500l-279 -500h418z" />
<glyph unicode="B" horiz-adv-x="1343" d="M389 1427h442q165 0 271 -92.5t106 -240.5q0 -113 -55 -205t-145 -137h-4q84 -47 129 -128t45 -184q0 -17 -4 -63q-19 -135 -103.5 -226t-208.5 -131t-284 -40q-136 0 -238 10l-129 14l182 1264q-51 -3 -67 -25q-14 -8 -22.5 -24t-8.5 -29l-29 -19l-133 5q0 16 2 30 q12 86 82 156q85 65 172 65zM559 1268l-162 -1123q193 -10 195 -10q383 0 420 260q4 28 4 43q0 107 -76 166.5t-197 59.5h-217l23 157h194q126 0 199 64q102 75 102 211q0 81 -53 124t-147 48h-285z" />
<glyph unicode="C" horiz-adv-x="1531" d="M1241 369l123 -97q-120 -155 -289.5 -236t-343.5 -81q-136 0 -253.5 50t-199 135.5t-128 203t-46.5 248.5q0 50 9 106q28 200 150.5 375.5t303 279t371.5 103.5q57 0 117 -10t119.5 -31t108.5 -58.5t73 -86.5q28 -48 28 -111q0 -93 -65.5 -163t-153.5 -70q-85 0 -139 61 l104 117q29 -23 44 -23q19 0 35.5 19t19.5 45l2 14q0 17 -17 51q-41 47 -119.5 68.5t-160.5 21.5q-117 0 -232 -51t-205 -135t-152 -197.5t-79 -234.5q-6 -43 -6 -86q0 -206 133.5 -344.5t345.5 -138.5q148 0 281 68.5t221 187.5z" />
<glyph unicode="D" horiz-adv-x="1662" d="M389 1417h596q266 -25 414.5 -186.5t148.5 -425.5q0 -59 -10 -137q-50 -352 -296 -519t-679 -167q-151 0 -231 8l-60 4h-2l-57 8l180 1255q-53 -3 -71 -30q-29 -15 -29 -45l-27 -21l-137 4q7 113 88 191q83 61 172 61zM559 1257l-160 -1112q185 -10 310 -10 q267 0 447 149t218 418q8 49 8 107q0 200 -114.5 319.5t-319.5 128.5h-389z" />
<glyph unicode="E" horiz-adv-x="1349" d="M1305 1247h-768l-60 -426h531l-23 -162h-530l-70 -499h768l-23 -162h-937l178 1247q-33 0 -52 -26q-28 -14 -34 -54q0 -1 -1 -8t-1 -12l-156 8q2 4 2 12q0 92 84 176q86 64 170 64h944z" />
<glyph unicode="F" horiz-adv-x="1269" d="M1305 1245h-768l-60 -426h531l-23 -160h-530l-93 -661h-169l178 1245q-36 0 -52 -26q-13 -6 -23 -21t-11 -33q-2 -4 -2 -20l-156 8q0 17 2 31q12 85 84 157q80 64 170 64h944z" />
<glyph unicode="G" horiz-adv-x="1550" d="M1104 -326l63 443q-195 -180 -452 -180q-134 0 -249.5 52t-195 140t-125 205.5t-45.5 247.5q0 23 9 102q20 148 98 288t189 242.5t251 165t279 62.5q68 0 140.5 -15.5t143.5 -46.5t116.5 -89.5t45.5 -133.5q0 -98 -66.5 -167.5t-154.5 -69.5q-91 0 -139 57l106 117 q29 -21 41 -21q22 0 40 23t18 53q0 35 -30 62t-77 42.5t-95.5 23t-92.5 7.5q-153 0 -298 -85.5t-242.5 -228t-119.5 -304.5q-6 -44 -6 -84q0 -206 131.5 -348t331.5 -142q176 0 313 109t182 272l25 176h162l-137 -985q-8 -64 -48 -112t-88.5 -69.5t-95.5 -21.5 q-59 0 -106.5 33.5t-65.5 83.5l144 84q2 -4 5 -11.5t4 -9.5t3.5 -6.5t4 -5t4.5 -2.5t6.5 -2h8.5q22 0 39.5 15t24.5 34z" />
<glyph unicode="H" horiz-adv-x="1452" d="M270 1202l-133 105q33 51 85 79.5t108 28.5q77 0 133.5 -51t56.5 -131q0 -21 -2 -31l-55 -393h686l84 596h168l-197 -1407h-168l90 651h-686l-90 -651h-170l170 1212v7q0 28 -26 28q-17 0 -28 -9t-26 -34z" />
<glyph unicode="I" horiz-adv-x="466" d="M211 -2h-168l197 1407h168z" />
<glyph unicode="J" horiz-adv-x="991" d="M233 1217l-59 145q105 41 154.5 54.5t91.5 13.5q28 0 57 -8.5t121 -43.5q67 -20 96 -20q22 0 68 22h-2l28 14q0 -1 -2 -10l29 27h137l-143 -1014q-11 -79 -43 -149.5t-84.5 -128.5t-132 -92.5t-176.5 -34.5q-88 0 -154 28t-103 76t-55 104.5t-18 121.5q0 28 8 86l156 -21 q-6 -35 -6 -61q0 -83 47 -128.5t137 -45.5q63 0 112.5 23.5t80 62.5t48 82.5t23.5 91.5l117 798q-35 -12 -82 -12q-48 0 -96 16q-38 8 -93 32t-81 24q-32 0 -97.5 -24.5t-83.5 -28.5z" />
<glyph unicode="K" horiz-adv-x="1339" d="M963 1409l206 -8q-196 -289 -280 -418q-20 -26 -66.5 -88.5t-62.5 -83.5q-69 -72 -113 -104l305 -547q10 -17 29 -17q22 0 38 15.5t19 38.5l1 3q1 4 1.5 7t-0.5 8l160 -6q-2 -56 -25.5 -100.5t-58.5 -71t-72.5 -40t-72.5 -13.5q-49 0 -92.5 25t-63.5 65l-321 563 q-75 -18 -189 -16l-90 -621h-172l197 1405h168l-86 -619h57q72 3 119 29q34 13 53 28t45 46q76 73 162 205q51 67 205 315z" />
<glyph unicode="L" horiz-adv-x="1079" d="M233 160h650l-23 -162h-817l197 1407h168z" />
<glyph unicode="M" horiz-adv-x="2140" d="M1718 -2l-67 1114l-557 -1114h-150l-246 1112l-329 -969q-24 -66 -82.5 -110.5t-124.5 -44.5q-70 0 -121 45t-59 104l147 51q11 -29 17 -36t22 -7q26 0 45 31l428 1231h152l258 -1149l2 -2l4 4l-4 -2l583 1149h152l92 -1407h-162zM1661 1133l-2 -3l-8 -16v-8zM698 1112 l-4 16l-2 2l2 -28z" />
<glyph unicode="N" horiz-adv-x="1611" d="M707 1149l567 -813l-10 26l137 1041h166l-197 -1405h-70l-788 1128l12 -22l-118 -916q-8 -63 -51.5 -110t-92.5 -66.5t-94 -19.5q-72 0 -125 53.5t-53 128.5q0 19 2 27q0 16 2 20l164 -8q-11 -22 -11 -27v-6q0 -13 10 -21.5t23 -8.5q21 0 38.5 15.5t19.5 31.5l170 1208 h108z" />
<glyph unicode="O" horiz-adv-x="1669" d="M111 682l4 39q20 143 94.5 277t182.5 233t248.5 159t285.5 60q179 0 324.5 -86.5t225.5 -232.5t80 -320q0 -49 -6 -98l-6 -39q-27 -197 -144 -364.5t-293 -266t-368 -98.5q-181 0 -327 86t-227 232t-81 321q0 40 7 98zM1389 682l4 39q6 44 6 86q0 209 -137.5 347 t-341.5 138q-154 0 -296.5 -81.5t-235.5 -214.5t-114 -283l-6 -39q-6 -44 -6 -84q0 -209 136.5 -348.5t340.5 -139.5q153 0 295.5 79.5t237.5 213.5t117 287z" />
<glyph unicode="P" horiz-adv-x="1271" d="M383 1405h459q165 0 257.5 -102.5t92.5 -264.5q0 -43 -6 -86q-16 -111 -65.5 -197.5t-121 -138.5t-155 -79t-174.5 -27q-81 0 -176 12l12 156q148 -8 162 -8q314 0 356 297q4 23 4 65q0 205 -229 215h-242l-174 -1249h-170l178 1249q-33 -1 -44.5 -6.5t-24.5 -21.5 q-36 -22 -39 -74l-156 8q2 4 2 12q0 92 84 176q86 64 170 64z" />
<glyph unicode="Q" horiz-adv-x="1611" d="M229 -311l277 321q-193 57 -297.5 213.5t-104.5 364.5q0 62 9 123q21 151 90.5 283.5t172.5 227t238.5 149t284.5 54.5q276 0 441 -171.5t165 -438.5q0 -68 -8 -123q-21 -152 -90.5 -284t-172.5 -226t-239.5 -147.5t-287.5 -52.5h-43l-111 -134l117 -45q96 -36 204 -36 q53 0 95.5 16t115.5 65l66 -133q-93 -63 -149 -81.5t-121 -18.5q-127 0 -260 47l-175 57l-104 -127zM895 1268q-243 0 -411.5 -160.5t-202.5 -411.5q-9 -83 -9 -104q0 -205 117.5 -331t327.5 -126q243 0 412.5 163t205.5 415q8 70 8 100q0 203 -119.5 329t-328.5 126z" />
<glyph unicode="R" horiz-adv-x="1490" d="M1184 211l168 -12q-1 -92 -71 -155.5t-157 -63.5q-101 0 -155 90l-207 325q-31 54 -58.5 83.5t-73 48t-114.5 22.5l16 158h193q136 0 221.5 90.5t85.5 232.5q0 98 -54 157.5t-147 59.5h-278l-174 -1249h-170l174 1249h-10q-30 0 -57 -24.5t-31 -57.5q0 -1 -1 -8t-1 -12 l-158 8q6 106 88 188q79 64 170 64h469q99 0 162 -39q86 -42 134 -132.5t48 -203.5q0 -44 -4 -67q-21 -147 -115 -249.5t-221 -129.5l-74 24q17 -6 45 -30l-26 -3h28q20 -16 29 -32l248 -389q11 -19 22 -19q20 0 40.5 18t23.5 40q0 10 -8 18zM829 575l-2 3q5 1 14.5 3 t14.5 3l16 -9h-43z" />
<glyph unicode="S" horiz-adv-x="1171" d="M23 326l149 51q30 -129 118 -200t206 -71q136 0 237 88.5t119 213.5q2 12 2 36q0 65 -35.5 107t-109.5 88q-24 12 -67 33t-73.5 36t-72.5 38.5t-71.5 45t-61 51.5t-51 61t-32 71t-12.5 84q0 110 62 201t159.5 140.5t206.5 49.5q68 0 127 -25q86 -24 133.5 -81.5 t47.5 -131.5q0 -89 -65.5 -154t-154.5 -65q-19 0 -47 4l31 164q9 -18 25 -18q21 0 36 19t15 46q0 38 -47 61t-105 23q-105 0 -186.5 -65.5t-81.5 -151.5q0 -43 24.5 -80.5t68.5 -68.5t87 -54.5t100 -52t87 -47.5q221 -119 221 -321q0 -94 -43 -185.5t-113 -161 t-166.5 -112.5t-197.5 -43q-170 0 -305 107.5t-164 269.5z" />
<glyph unicode="T" horiz-adv-x="1304" d="M1303 1245h-474l-174 -1247h-170l174 1247h-290q-21 0 -37.5 -16t-18.5 -35q0 -12 6 -16l-167 6q3 97 77 168q69 53 148 53h948z" />
<glyph unicode="U" horiz-adv-x="1556" d="M281 1206l-134 105q30 49 89.5 80.5t115.5 31.5q90 0 143.5 -49t53.5 -133q0 -13 -4 -41l-90 -649q-6 -43 -6 -84q0 -149 82 -239.5t243 -90.5q81 0 151.5 24.5t121 66t89 96.5t60.5 114t31 121l119 848h170l-119 -856q-15 -106 -62 -205t-122 -181.5t-190 -132.5 t-251 -50q-120 0 -215 38.5t-155 105t-91.5 153t-31.5 186.5q0 47 6 94l92 649v15q0 15 -6.5 23t-11 8.5t-11.5 0.5q-49 0 -67 -49z" />
<glyph unicode="V" horiz-adv-x="1288" d="M283 1194l-150 53q25 77 89.5 123.5t135.5 46.5q64 0 108.5 -35t53.5 -84l203 -1028l526 1137h172l-653 -1409h-152l-241 1233q-5 20 -27 20t-40 -15t-25 -42z" />
<glyph unicode="W" horiz-adv-x="2162" d="M2296 1407l-656 -1409h-151l-207 1122l-522 -1122h-152l-231 1239q-7 27 -31 27q-46 0 -63 -60l-148 53q23 77 87.5 122.5t131.5 45.5q68 0 118 -42t58 -103l187 -1006l-19 -47l2 2l17 37l8 -39l4 -22l-6 76l518 1126h152l194 -1081l-20 -152l2 10l8 43l20 45l9 -45 l-2 56l520 1124h172zM1597 272l-10 54l10 65l7 -108zM717 266v8l6 17v-10z" />
<glyph unicode="X" horiz-adv-x="1388" d="M756 719l250 -559q5 -13 22 -13q24 0 43 21.5t21 48.5l159 -16q-10 -98 -81 -156.5t-156 -58.5q-71 0 -112 40.5t-71 116.5l-196 441l-430 -586h-201l533 721l-336 686h188l268 -553l426 553h203z" />
<glyph unicode="Y" horiz-adv-x="1316" d="M301 1194l-168 25q13 95 84.5 150.5t149.5 55.5q50 0 95 -28t70 -84l213 -514l424 608h197l-555 -797l-86 -612h-178l92 608l-256 637q-11 17 -31 17q-19 0 -35.5 -13t-19.5 -33q0 -12 4 -20z" />
<glyph unicode="Z" horiz-adv-x="1230" d="M299 219l25 -6q35 -7 170 -47.5t198 -40.5q132 0 256 117l103 -115q-95 -84 -182 -120t-181 -36q-79 0 -158.5 20.5t-170 51.5t-154.5 45l-99 -127l-122 78l890 1208h-602l23 152h874z" />
<glyph unicode="[" horiz-adv-x="727" d="M756 1376h-353l-219 -1562h353l-23 -160h-520l264 1882h520z" />
<glyph unicode="\" horiz-adv-x="741" d="M559 -139h-176l-211 1675h176z" />
<glyph unicode="]" horiz-adv-x="729" d="M432 -346h-520l22 160h353l219 1562h-352l22 160h520z" />
<glyph unicode="^" horiz-adv-x="962" d="M883 737l-146 -96l-213 381l-315 -377l-127 92l442 531h64z" />
<glyph unicode="_" horiz-adv-x="1212" d="M928 -266h-922l21 157h921z" />
<glyph unicode="`" horiz-adv-x="577" d="M582 1223l-80 -107l-352 246l116 137z" />
<glyph unicode="a" d="M1010 182l123 -96q-34 -55 -85.5 -80.5t-101.5 -25.5q-63 0 -110.5 35.5t-63.5 88.5q-116 -124 -305 -124q-95 0 -170.5 34.5t-122 94.5t-70.5 138t-24 169q0 57 8 104q33 236 189.5 386.5t384.5 150.5q106 0 243 -19h135l-120 -860v-8q0 -16 9 -25.5t21 -9.5q37 0 60 47 zM793 399l73 490q-19 1 -103 8.5t-116 7.5q-163 0 -269 -111.5t-130 -285.5q-6 -43 -6 -86q0 -127 59 -209t174 -82q89 0 160.5 43t114.5 115q34 43 43 110z" />
<glyph unicode="b" horiz-adv-x="1138" d="M408 1489l-78 -537q122 105 286 105q177 0 280 -122.5t103 -320.5q0 -30 -8 -104q-15 -108 -57.5 -201t-112.5 -168t-178.5 -118t-243.5 -43q-107 0 -192 12q-32 3 -83.5 15t-72.5 22l201 1460h156zM219 145l78 -8q62 -10 106 -6q103 0 182.5 31t129 87t78.5 124t41 151 q6 47 6 88q0 138 -65.5 215.5t-168.5 77.5q-100 0 -182 -63q-107 -64 -131 -174z" />
<glyph unicode="c" horiz-adv-x="1093" d="M840 244l67 -127q-196 -129 -411 -129q-204 0 -310 111t-106 302q0 51 6 103q17 115 62.5 217t113 178t159 120t193.5 44q143 0 245 -79.5t102 -207.5q0 -25 -7 -65l-161 8q6 27 6 53q0 71 -51 109.5t-130 38.5q-63 0 -119 -25.5t-98 -68.5t-75 -99.5t-53 -117.5 t-29 -124q-6 -43 -6 -79q0 -129 67.5 -199t194.5 -70q83 0 160 27t180 80z" />
<glyph unicode="d" d="M920 178v-4q0 -15 9.5 -27t22.5 -12q20 0 32 10t26 37l123 -96q-34 -55 -85.5 -80.5t-101.5 -25.5q-63 0 -110.5 35.5t-63.5 88.5q-116 -124 -303 -124q-126 0 -215.5 59.5t-131.5 156.5t-42 220q0 34 8 104q22 154 98.5 275t200.5 191.5t275 70.5q72 0 217 -17l67 451 h158zM793 399l73 488q-8 1 -32.5 5t-40 6.5t-42 4.5t-51.5 2q-395 0 -452 -387q-6 -46 -6 -90q0 -136 59.5 -216.5t179.5 -80.5q85 0 154.5 41.5t114.5 116.5q34 43 43 110z" />
<glyph unicode="e" horiz-adv-x="1097" d="M838 236l67 -127q-197 -129 -416 -129q-205 0 -308 112.5t-103 296.5q0 49 6 98q12 80 38.5 158.5t72 153.5t104.5 132t141 91.5t176 34.5q146 0 244 -80t98 -211q0 -176 -139.5 -273.5t-365.5 -97.5l-211 -4q3 -131 64.5 -195.5t189.5 -64.5q61 0 123.5 16t105.5 35 t113 54zM254 543l211 4q154 0 245 53t91 166q0 70 -53 107.5t-130 37.5q-75 0 -140.5 -35.5t-109.5 -92t-73 -118t-41 -122.5z" />
<glyph unicode="f" horiz-adv-x="854" d="M-35 -518l217 1542q71 498 404 498q128 0 201 -71.5t73 -197.5q0 -17 -4 -63q-26 -175 -153.5 -271t-317.5 -96h-76l-39 -276h295l-20 -152h-295l-129 -913h-156zM332 975h67q126 0 204 63t93 170q2 14 2 39q0 60 -30.5 91.5t-89.5 31.5q-58 0 -101.5 -28t-70.5 -80 t-42.5 -108.5t-25.5 -131.5z" />
<glyph unicode="g" horiz-adv-x="1140" d="M1042 1038l-174 -1243q-23 -158 -125.5 -256t-240.5 -98q-92 0 -157 44.5t-93.5 110t-28.5 142.5q0 67 28.5 139t82.5 127q-56 16 -94 57q-80 65 -117 172t-37 220q0 47 6 88q14 99 62.5 191.5t121.5 165t174 116t212 43.5q33 0 131 -4l120 -15h129zM705 905h-60 q-106 0 -195.5 -58.5t-141.5 -147.5t-66 -191q-4 -23 -4 -68q0 -128 61.5 -218.5t167.5 -90.5q52 0 100 25q51 20 108 63.5t89 97.5q30 43 33 66l71 512zM715 -203l45 305q-42 -37 -53 -49q-23 -15 -80.5 -45.5t-118.5 -66.5q-133 -67 -133 -199q0 -62 36 -105t107 -43 q79 0 128.5 56t68.5 147z" />
<glyph unicode="h" horiz-adv-x="1239" d="M408 1495l-80 -561q136 127 323 127q152 0 232 -71.5t80 -203.5q0 -27 -7 -71l-75 -533v-4q0 -18 10 -27.5t24 -9.5q21 0 33 10.5t23 34.5l125 -96q-34 -51 -84 -77.5t-103 -26.5q-81 0 -132.5 50.5t-51.5 125.5q0 18 2 28l74 527q4 36 4 49q0 145 -174 145 q-95 0 -170 -46t-160 -142l-102 -719h-156l209 1491h156z" />
<glyph unicode="i" horiz-adv-x="532" d="M307 1466q43 0 73 -30t30 -72t-37 -77.5t-80 -35.5q-41 0 -69.5 30.5t-28.5 70.5q0 44 35 79t77 35zM203 178v-8q0 -14 9.5 -24.5t20.5 -10.5q42 0 58 47l127 -96q-34 -49 -85.5 -77.5t-105.5 -28.5q-77 0 -129.5 52t-52.5 126q0 18 2 28l119 854h158z" />
<glyph unicode="j" horiz-adv-x="546" d="M436 1466q42 0 72.5 -30t30.5 -72t-37 -77.5t-80 -35.5q-41 0 -69.5 30.5t-28.5 70.5q0 44 35 79t77 35zM455 1042l-191 -1361q-12 -82 -77 -140.5t-146 -58.5q-58 0 -103.5 30.5t-68.5 84.5l141 77q9 -23 15.5 -28.5t21.5 -5.5q23 0 41 15t21 34l188 1353h158z" />
<glyph unicode="k" horiz-adv-x="1220" d="M408 1491l-82 -569q63 68 145 103.5t168 35.5q133 0 214 -79t81 -204q0 -17 -4 -53q-28 -181 -213 -283l129 -272q2 -8 14 -8q60 0 66 49v20l159 -16q-6 -83 -73.5 -149t-149.5 -66q-50 0 -96.5 28.5t-63.5 71.5l-145 297h-303l-55 -397h-156l209 1491h156zM281 545 l202 4q86 0 146 29q153 55 153 200q0 61 -39.5 98t-111.5 37q-97 0 -179.5 -66.5t-129.5 -184.5q-30 -62 -41 -117z" />
<glyph unicode="l" horiz-adv-x="579" d="M221 180v-8q0 -16 10 -25.5t23 -9.5q34 0 57 45l125 -94q-31 -49 -84.5 -77.5t-105.5 -28.5q-75 0 -127.5 53t-52.5 127q0 18 2 26l182 1301h156z" />
<glyph unicode="m" horiz-adv-x="1841" d="M156 963l104 92q81 -56 98 -148q138 150 322 150q96 0 164 -42t96 -118q145 160 328 160q134 0 214.5 -78.5t80.5 -204.5q0 -17 -4 -57l-76 -541v-6q0 -16 11 -26.5t24 -10.5q16 0 28 9.5t31 33.5l121 -92q-72 -107 -189 -107q-81 0 -131.5 53t-50.5 126q0 18 2 28 l74 537q0 6 1 18t1 17q0 80 -34 114.5t-109 34.5q-88 0 -161 -44t-138 -140l-103 -723h-155l98 696q4 40 4 58q0 153 -141 153q-91 0 -172.5 -51.5t-124.5 -128.5l-105 -727h-155l102 731q4 25 4 70q0 108 -59 164z" />
<glyph unicode="n" horiz-adv-x="1271" d="M121 963l106 92q83 -52 101 -158q155 160 356 160q148 0 229.5 -72t81.5 -209q0 -6 -1 -18.5t-1 -18.5l-80 -567v-6q0 -16 11 -26.5t22 -8.5q32 0 60 41l120 -92q-72 -107 -188 -107q-81 0 -132.5 54t-51.5 129q0 16 2 24l73 514q5 57 5 62q0 78 -39.5 113.5t-124.5 35.5 q-98 0 -174 -46.5t-162 -141.5l-103 -719h-157l102 731q6 41 6 72q0 107 -61 162z" />
<glyph unicode="o" horiz-adv-x="1269" d="M672 1057q207 0 331.5 -128.5t124.5 -332.5q0 -42 -6 -88q-34 -231 -199 -379.5t-388 -148.5q-207 0 -330 126.5t-123 327.5q0 42 6 88q15 111 66 209.5t127 170.5t178 113.5t213 41.5zM668 905q-171 0 -283.5 -112.5t-136.5 -284.5q-6 -41 -6 -74q0 -139 80 -221 t221 -82q169 0 282.5 112.5t137.5 288.5q6 40 6 74q0 138 -80.5 218.5t-220.5 80.5z" />
<glyph unicode="p" horiz-adv-x="1169" d="M121 963l106 92q77 -60 97 -137q120 139 317 139q128 0 218 -60t131.5 -156.5t41.5 -219.5q0 -35 -8 -105q-33 -237 -188 -386.5t-387 -149.5q-93 0 -216 14l-75 -514h-158l176 1249q6 41 6 72q0 107 -61 162zM326 668l-78 -523q141 -14 196 -14q179 0 286.5 105 t133.5 284q6 44 6 84q0 134 -59.5 217.5t-169.5 83.5q-106 0 -200 -68t-115 -169z" />
<glyph unicode="q" horiz-adv-x="1140" d="M662 -520l86 600q-111 -100 -283 -100q-124 0 -212.5 59.5t-130.5 156.5t-42 222q0 32 8 106q22 156 96.5 274.5t205.5 188.5t302 70q76 0 172.5 -13t165.5 -36l-211 -1528h-157zM786 367l78 522q-93 14 -168 14q-393 0 -446 -383q-8 -47 -8 -100q0 -133 57 -211t166 -78 q110 0 202.5 66t118.5 170z" />
<glyph unicode="r" horiz-adv-x="763" d="M141 963l107 92q79 -56 98 -148q54 66 111 105q86 45 190 45q23 0 141 -21l-12 -151q-70 18 -129 18q-104 0 -164 -51q-29 -18 -65 -54t-64 -77l-102 -723h-158l103 731q6 41 6 72q0 106 -62 162z" />
<glyph unicode="s" horiz-adv-x="944" d="M8 115l90 118q123 -102 283 -102q103 0 173.5 47.5t70.5 143.5q0 40 -22.5 67.5t-74.5 56.5q-30 15 -78.5 34t-84 33t-76 37t-66.5 48t-43.5 63.5t-17.5 86.5q0 141 102.5 225t243.5 84q73 0 153 -22t121 -56l-45 -145q-103 71 -235 71q-83 0 -130.5 -38t-47.5 -97 q0 -53 52.5 -88t146.5 -72.5t141 -70.5q122 -75 122 -213q0 -13 -4 -45q-11 -77 -51.5 -137t-100 -94.5t-126.5 -52t-139 -17.5q-215 0 -357 135z" />
<glyph unicode="t" horiz-adv-x="786" d="M340 1036h315l-22 -157h-316l-79 -576q-7 -47 -7 -72q0 -52 20.5 -76t70.5 -24q132 0 200 133l115 -98q-122 -186 -322 -186q-123 0 -181 67t-58 184q0 37 6 80l137 975h156z" />
<glyph unicode="u" horiz-adv-x="1300" d="M119 938l98 127q31 -26 43.5 -37t39.5 -39t39 -48.5t23 -52.5t11 -65q0 -22 -2 -32l-64 -447q-4 -40 -4 -57q0 -81 40 -117.5t126 -36.5q68 0 125 23t103 61t106 105l104 718h158l-123 -864v-8q0 -14 10 -24.5t23 -10.5q34 0 57 45l125 -98q-74 -103 -186 -103 q-71 0 -121.5 42t-61.5 104q-78 -75 -157.5 -107t-175.5 -32q-150 0 -231 71t-81 207q0 6 1 18.5t1 18.5l72 500q3 24 -9.5 48t-26 37.5t-37 32.5t-25.5 21z" />
<glyph unicode="v" horiz-adv-x="1040" d="M119 950l98 127q63 -39 102 -103t50 -138l108 -570l363 772h164l-486 -1040h-145l-162 842l4 2q-11 38 -37.5 68.5t-58.5 39.5z" />
<glyph unicode="w" horiz-adv-x="1705" d="M119 952l98 129q122 -81 150 -243l110 -566l359 768h145l143 -768l359 768h166l-484 -1040h-147l-139 768l-363 -768h-147l-154 844q-12 39 -38 69t-58 39z" />
<glyph unicode="x" horiz-adv-x="1169" d="M602 524l182 -381l-4 -6q4 -10 9.5 -12t19.5 -2q22 0 39 15t20 34q0 16 -6 21l166 -17q-7 -91 -74.5 -153t-150.5 -62q-51 0 -94.5 26t-67.5 74l-158 326l-299 -389h-188l403 522l-258 520h185l188 -389l291 389h190z" />
<glyph unicode="y" horiz-adv-x="1161" d="M1065 1040l-107 -745l-71 -508q-23 -165 -124.5 -259.5t-236.5 -94.5q-134 0 -208 85.5t-74 207.5q0 17 4 49q8 57 35.5 118.5t70.5 102.5q-100 19 -155.5 84t-55.5 164q0 17 4 57l70 498q4 34 -40.5 84.5t-57.5 48.5l98 133q33 -28 47 -41t40 -40.5t37.5 -48t21.5 -51 t10 -61.5q0 -20 -2 -32l-64 -447q-4 -40 -4 -57q0 -80 39.5 -117t124.5 -37q92 0 161.5 39t149.5 121l-2 -2q20 24 26 38t9 38l96 673h158zM733 -213l41 291q-47 -33 -96 -58l-107 -51q-80 -40 -120 -86.5t-50 -120.5q-2 -12 -2 -38q0 -64 32.5 -101t96.5 -37q81 0 137 55.5 t68 145.5z" />
<glyph unicode="z" horiz-adv-x="1116" d="M963 979l-637 -772l116 -47q88 -35 201 -35q54 0 96.5 15t120.5 67l64 -133q-77 -54 -141.5 -77.5t-139.5 -23.5q-126 0 -252 47l-174 56l-104 -127l-113 94l690 842h-487l20 151h746z" />
<glyph unicode="{" horiz-adv-x="702" d="M266 532q25 -48 31 -96q2 -17 4 -50t4 -50q1 -33 2.5 -108t3.5 -137.5t6 -96.5q5 -40 25 -64q22 -35 71 -61t90.5 -36.5t100.5 -20.5l-35 -138q-14 3 -55.5 11t-64.5 13.5t-63 18t-67.5 27t-59.5 38.5t-56 54q-38 58 -51 146q-16 115 -21 374q0 52 -2 68q-5 35 -23 53h5 q-35 35 -95 47q-42 17 -73 19l-13 153q30 0 74 6q51 15 72 41q4 12 4 21t-4 33q-2 12 -8.5 37.5t-8.5 39.5v3l-30 116l-31 125q-16 62 -21 103q-6 37 -6 71q0 56 23 92q21 62 78 91q84 57 241 88l58 -138q-131 -19 -199 -63q-31 -36 -33 -39q-2 -8 -2 -27q0 -15 4 -43 q2 -18 9.5 -49t9.5 -41v-2l30 -119q20 -70 38 -153.5t18 -118.5q0 -72 -45 -117q-8 -20 -29 -30q57 -35 94 -91z" />
<glyph unicode="|" horiz-adv-x="466" d="M190 -139h-167l235 1675h168z" />
<glyph unicode="}" horiz-adv-x="700" d="M514 971l-31 -119q-2 -14 -8 -40t-8 -38q-4 -24 -4 -33q0 -8 4 -20q21 -26 72 -41q43 -6 73 -6l-12 -154q-36 -3 -74 -18q-58 -11 -94 -47h4q-16 -16 -22 -54q-2 -16 -2 -67q-5 -261 -21 -375q-13 -87 -51 -145q-24 -30 -56 -54t-59.5 -38.5t-67.5 -27t-63.5 -18 t-65 -13.5t-55.5 -11l-34 137q59 10 101 21t90.5 37t70.5 61q19 23 24 63q4 34 6.5 96t4 138t2.5 108q2 17 4 50.5t4 50.5q7 50 30 96h3q30 52 92 90q-20 10 -29 31q-45 45 -45 117q0 35 17.5 119t37.5 153l31 119v2q1 6 8.5 39t9.5 51q5 35 5 43q0 14 -3 26q-7 10 -32 39 q-70 45 -199 64l57 137q158 -31 242 -88q57 -29 78 -90q22 -34 22 -92q0 -34 -6 -72q-6 -46 -20 -102z" />
<glyph unicode="~" horiz-adv-x="1112" d="M862 725l90 -123q-117 -96 -245 -106h-31q-72 0 -161.5 33.5t-129.5 33.5q-91 0 -182 -76l-88 123q72 55 134.5 80t137.5 25q70 0 123.5 -16.5t93 -33t76.5 -16.5q50 0 90.5 17.5t91.5 58.5z" />
<glyph unicode="&#xa1;" horiz-adv-x="514" d="M193 846q-42 0 -77.5 35.5t-35.5 79.5q0 40 28.5 70t69.5 30q43 0 80 -35.5t37 -77.5t-30 -72t-72 -30zM369 -410l-146 1172h150l182 -1172h-186z" />
<glyph unicode="&#xa2;" horiz-adv-x="1067" d="M719 1403l-33 -207q60 -10 112 -38t83 -62q69 -72 69 -181q0 -30 -6 -65l-160 8q7 35 7 60q0 48 -25 83q-45 36 -92 50l-117 -770q54 6 96.5 20t103 44.5t72.5 35.5l68 -123q-87 -61 -180 -96q-104 -29 -172 -35l-23 -129h-170l23 135q-180 36 -248 172q-55 96 -55 240 q0 60 8 112q30 212 149 361q124 140 287 174l33 211h170zM389 291l113 747q-101 -38 -166 -149q-83 -114 -105 -273q-6 -44 -6 -75q0 -89 37 -156q52 -69 127 -94z" />
<glyph unicode="&#xa3;" horiz-adv-x="1196" d="M299 762l33 229q23 170 137 273q124 100 328 100q137 0 247 -45l-12 -148q-132 41 -254 41q-124 0 -190 -63q-73 -55 -88 -166l-31 -221h305l-22 -162h-306l-47 -332l-6 -37l-8 -18q176 -62 223 -70q59 -12 92 -12q55 0 105 19.5t119 66.5l61 -143q-140 -101 -268 -101 q-82 0 -142 13q-58 10 -122 34l-123 35q-35 -61 -58 -78l-28 -2l-117 60q32 42 66 115q26 39 38 122l45 328h-161l22 162h162z" />
<glyph unicode="&#xa4;" horiz-adv-x="1456" d="M1378 1100l-237 -213q49 -85 49 -211q0 -44 -6 -90q-14 -102 -45 -174q-44 -74 -82 -117l180 -205l-131 -121l-188 213q-61 -31 -111 -53q-73 -20 -160 -20q-88 0 -151 26q-55 13 -103 49l-246 -215l-106 121l235 209q-51 91 -51 213q0 44 6 90q14 100 48 176 q46 77 81 117l-178 205l133 121l185 -213q53 30 110 53q73 20 158 20q90 0 154 -28q52 -13 104 -49l248 217zM764 926q-36 0 -60 -4t-33.5 -7.5t-35.5 -15.5q-68 -21 -111 -70q-50 -38 -75 -104q-34 -58 -46 -139q-6 -41 -6 -80q0 -21 4 -57q12 -39 48 -105q41 -41 81 -63 q56 -19 125 -19q74 0 131 29q59 19 111 71q51 42 76 107q34 58 43 137q6 41 6 74q0 96 -49 166q-74 80 -209 80z" />
<glyph unicode="&#xa5;" horiz-adv-x="1312" d="M854 786h276l-22 -155h-367l-10 -17l-20 -127h379l-21 -153h-379l-47 -336h-168l47 336h-385l21 153h381l20 127l-6 17h-377l23 155h286l-284 572h190l275 -559l428 559h198z" />
<glyph unicode="&#xa6;" horiz-adv-x="450" d="M315 754h-168l109 782h168zM188 -139h-168l111 782h168z" />
<glyph unicode="&#xa7;" horiz-adv-x="878" d="M723 1386l27 -151q-187 -34 -254 -76q-82 -33 -82 -115q0 -31 15.5 -56.5t47.5 -57.5q16 -12 54.5 -38.5t64 -48t47.5 -48.5q86 -80 86 -181q0 -51 -22 -117.5t-62 -115.5q-42 -31 -63 -45q30 -62 30 -129q0 -150 -141 -242q-131 -72 -346 -102l-25 151q181 34 252 76 q71 27 82 96q0 3 1 9.5t1 9.5q0 32 -15 56.5t-48 57.5q-18 14 -54.5 39.5t-63.5 48t-50 48.5q-82 79 -82 182q0 125 80 231q33 23 63 47q-28 58 -28 119q0 158 141 250q139 76 344 102zM381 793q-88 -53 -88 -146q0 -25 12 -46t37 -50q21 -18 64.5 -48t62.5 -46 q43 24 64.5 63.5t21.5 77.5q0 41 -45 100q-15 11 -43 30t-49 34.5t-37 30.5z" />
<glyph unicode="&#xa8;" horiz-adv-x="944" d="M303 1452q43 0 73 -30t30 -72t-37 -77.5t-80 -35.5q-41 0 -70 30t-29 70q0 44 35.5 79.5t77.5 35.5zM743 1452q43 0 73 -30t30 -72t-37 -77.5t-80 -35.5q-41 0 -69.5 30t-28.5 70q0 44 35 79.5t77 35.5z" />
<glyph unicode="&#xa9;" horiz-adv-x="1527" d="M815 1137q249 0 399 -151t150 -386q0 -48 -6 -98q-23 -179 -121.5 -321t-252 -222t-333.5 -80q-252 0 -400.5 149.5t-148.5 385.5q0 39 7 100q25 182 122.5 324t250 220.5t333.5 78.5zM811 993q-212 0 -367 -138t-184 -353q-6 -46 -6 -90q0 -180 107 -286t294 -106 q213 0 367 144.5t184 359.5q6 44 6 82q0 186 -105.5 286.5t-295.5 100.5zM901 387l62 -121q-126 -88 -246 -88q-124 0 -191 79.5t-67 201.5q0 94 38 182.5t112.5 148.5t166.5 60q47 0 101.5 -14.5t70.5 -36.5l-12 -101l-33 -18q-70 31 -117 31q-56 0 -98 -42.5t-60 -97.5 t-18 -108q0 -69 33 -107.5t90 -38.5q43 0 81 17.5t87 52.5z" />
<glyph unicode="&#xaa;" horiz-adv-x="872" d="M678 930l90 -64q-58 -75 -127 -75q-67 0 -96 49q-61 -49 -142 -49q-73 0 -123.5 41t-71 98t-20.5 123q0 107 56 188.5t137 122.5q65 20 113 20q21 0 64.5 -4t55.5 -4h107l-64 -450zM563 1235l-26 2q-8 1 -15.5 2t-11 1.5t-6.5 0.5q-74 0 -126 -52.5t-52 -137.5 q0 -49 21 -84t59 -35q37 0 66 23.5t44 52.5l14 20z" />
<glyph unicode="&#xab;" horiz-adv-x="1282" d="M760 899l-481 -377l374 -379l-118 -116l-373 383q-68 68 -60 120q6 42 84 107l480 379zM1178 899l-482 -377l375 -379l-119 -116l-372 383q-68 68 -60 120q6 42 84 107l479 379z" />
<glyph unicode="&#xac;" horiz-adv-x="1026" d="M825 291h-172l33 233h-592l23 162h764z" />
<glyph unicode="&#xad;" horiz-adv-x="1253" d="M719 571h-637l22 162h637z" />
<glyph unicode="&#xae;" horiz-adv-x="1527" d="M864 1489q164 0 290 -70.5t193.5 -192t67.5 -272.5q0 -32 -8 -102q-37 -275 -233.5 -448t-471.5 -173q-253 0 -401.5 149.5t-148.5 385.5q0 48 6 100q26 184 126 326t251 219.5t329 77.5zM860 1346q-216 0 -368.5 -139.5t-182.5 -354.5q-6 -46 -6 -88q0 -183 105.5 -287 t296.5 -104q213 0 366 143t184 358q7 51 7 87q0 186 -105.5 285.5t-296.5 99.5zM627 1214h92q19 0 56.5 5.5t60.5 5.5q102 0 166.5 -57t64.5 -146q0 -64 -32.5 -118t-86.5 -89q26 -26 41 -76l58 -200l-142 -60l-45 197q-12 51 -42.5 73.5t-86.5 22.5h-24l-43 -297h-142 l27 203l47 336zM725 899h88q49 0 81 33.5t32 81.5q0 71 -107 71q-32 0 -65 -6z" />
<glyph unicode="&#xaf;" horiz-adv-x="940" d="M891 1245h-696l22 160h696z" />
<glyph unicode="&#xb0;" horiz-adv-x="849" d="M510 1366q116 0 185 -68t69 -182q0 -83 -30 -148.5t-79 -104t-104.5 -58t-112.5 -19.5q-114 0 -184 68t-70 182q0 17 4 49q10 71 43 126.5t78.5 88.5t96.5 49.5t104 16.5zM504 1221q-71 0 -118.5 -54t-47.5 -131q0 -48 28.5 -77t79.5 -29q72 0 118 52t46 132 q0 50 -27 78.5t-79 28.5z" />
<glyph unicode="&#xb1;" horiz-adv-x="1038" d="M594 680h313l-22 -150h-314l-45 -319h-159l45 319h-314l23 150h313l43 317h160zM811 -2h-786l20 152h786z" />
<glyph unicode="&#xb2;" horiz-adv-x="659" d="M315 1139l-129 75q30 86 95 136.5t149 50.5q82 0 133 -47.5t51 -120.5q0 -19 -2 -27q-6 -40 -22 -73.5t-44 -60.5t-51 -44.5t-61.5 -43t-56.5 -38.5l-41 -28h260l-21 -142h-440l8 64q11 72 57 128t124 117q38 22 55 33t42.5 30t37 37.5t14.5 39.5v8q0 33 -45 33 q-42 0 -73.5 -28.5t-37.5 -74.5q-2 -4 -2 -24z" />
<glyph unicode="&#xb3;" horiz-adv-x="681" d="M266 1350l-2 2q79 49 156 49q76 0 133 -45.5t57 -112.5q0 -27 -16.5 -63.5t-44.5 -67.5q51 -48 51 -133q0 -66 -39.5 -117t-96 -75.5t-116.5 -24.5q-46 0 -88.5 14t-71.5 36.5t-46 40t-29 34.5l100 104q31 -39 44.5 -53t34.5 -24.5t50 -10.5q48 0 80.5 22t32.5 58 q0 24 -20 38.5t-52 16.5h-137l20 140h131q18 0 40.5 19t23.5 40q0 9 -12.5 16t-32.5 7q-31 0 -58.5 -14t-76.5 -52l-60 123z" />
<glyph unicode="&#xb4;" horiz-adv-x="684" d="M659 1362l-413 -246l-58 107l385 276z" />
<glyph unicode="&#xb5;" horiz-adv-x="1105" d="M967 1036l-103 -731q-6 -43 -6 -76q0 -102 60 -159l-107 -93q-62 43 -84 111q-12 22 -16 51q-146 -159 -336 -159q-81 0 -127 18q-28 4 -64 20l-75 -516h-158l215 1534h158l-97 -667l4 -4q-12 -59 -12 -99q0 -57 25 -96q36 -39 147 -39q92 0 160 53q71 41 156 140 l102 712h158z" />
<glyph unicode="&#xb6;" horiz-adv-x="1073" d="M1008 1266l-179 -1266h-163l155 1106h-114l-156 -1106h-164l74 498q-230 24 -307 114q-66 72 -66 199q0 35 6 76q27 209 166 301q141 84 469 84h94z" />
<glyph unicode="&#xb7;" horiz-adv-x="507" d="M258 813q54 0 91.5 -37.5t37.5 -91.5q0 -60 -48.5 -108t-105.5 -48q-55 0 -93 38.5t-38 92.5q0 15 2 21q6 53 52.5 93t101.5 40z" />
<glyph unicode="&#xb8;" horiz-adv-x="575" d="M238 68l-43 -105q58 -16 87 -63.5t29 -108.5q0 -43 -20 -89.5t-54 -85t-88.5 -61t-115.5 -16.5l14 154q8 -2 21 -2q37 0 64.5 30.5t27.5 67.5q0 41 -62 41h-92l60 238h172z" />
<glyph unicode="&#xb9;" horiz-adv-x="497" d="M532 1456l-88 -631h-143l64 418q-41 -12 -78 -12q-19 0 -35 4l-31 158q37 -25 62 -25q10 0 21.5 3t21 7t26.5 13.5t28 16t36.5 22.5t42.5 26h73z" />
<glyph unicode="&#xba;" horiz-adv-x="878" d="M530 1436q67 0 122 -25t89 -70q60 -63 60 -172q0 -153 -115 -272q-100 -84 -223 -84q-69 0 -125 26t-88 72q-57 66 -57 170q0 67 29 143t83 128q100 84 225 84zM528 1298q-74 0 -125.5 -45t-60.5 -118q-4 -40 -4 -56q0 -51 20 -90q32 -39 101 -39q81 0 131 58 q67 60 67 166q0 50 -24 88q-36 36 -105 36z" />
<glyph unicode="&#xbb;" horiz-adv-x="1282" d="M272 1016l373 -383q60 -54 60 -107q0 -52 -82 -120l-482 -379l-92 116l479 379l-372 377zM690 1016l375 -383q57 -64 57 -109t-82 -118l-481 -379l-92 116l479 379l-373 377z" />
<glyph unicode="&#xbc;" horiz-adv-x="1667" d="M467 1042l-88 -630h-143l63 417q-41 -12 -78 -12q-19 0 -35 4l-30 158q38 -25 61 -25q10 0 21.5 3t21 7t26.5 13.5t28 16t36.5 22.5t42.5 26h74zM532 -2h-174l603 1042h169zM1165 272h76l25 177h145l-25 -177h68l-18 -139h-68l-14 -104h-146l15 104h-252l10 96l238 422 h159z" />
<glyph unicode="&#xbd;" horiz-adv-x="1648" d="M467 1042l-88 -630h-143l63 417q-41 -12 -78 -12q-19 0 -35 4l-30 158q38 -25 61 -25q10 0 21.5 3t21 7t26.5 13.5t28 16t36.5 22.5t42.5 26h74zM532 -2h-174l603 1042h169zM1141 385l-129 76q30 86 94.5 136t148.5 50q82 0 133.5 -47.5t51.5 -120.5q0 -18 -2 -26 q-6 -40 -22 -73.5t-44.5 -60.5t-51.5 -44.5t-61.5 -43t-56.5 -38.5l-41 -29h260l-20 -141h-440l8 63q11 72 57 129t123 117q40 23 55.5 33t41.5 29.5t37.5 37.5t14.5 39v8q0 33 -45 33q-42 0 -73 -28t-37 -74q-2 -4 -2 -25z" />
<glyph unicode="&#xbe;" horiz-adv-x="1851" d="M256 997l-2 2q81 50 156 50q76 0 133 -45.5t57 -112.5q0 -27 -16.5 -63.5t-44.5 -67.5q51 -48 51 -133q0 -66 -39.5 -117t-96 -75.5t-116.5 -24.5q-46 0 -88.5 14t-72 36.5t-47 40.5t-28.5 34l101 104q31 -39 44.5 -53t34.5 -24.5t50 -10.5q48 0 80 22t32 58 q0 24 -19.5 38.5t-51.5 16.5h-137l20 139h131q18 0 40.5 19.5t23.5 40.5q0 9 -12.5 15.5t-32.5 6.5q-31 0 -59.5 -14t-76.5 -51l-59 123zM717 -2h-174l602 1042h170zM1350 272h75l25 177h145l-24 -177h67l-18 -139h-68l-14 -104h-145l14 104h-252l10 96l238 422h160z" />
<glyph unicode="&#xbf;" horiz-adv-x="1067" d="M717 909q-44 0 -76.5 34t-32.5 77q0 47 39 87t86 40q46 0 78.5 -33.5t32.5 -79.5q0 -47 -40.5 -86t-86.5 -39zM694 -18l-14 149q4 0 12 1t17 1q85 0 130.5 -44.5t45.5 -115.5q0 -60 -29.5 -112t-75.5 -85.5t-104 -58t-113.5 -35t-105.5 -10.5q-162 0 -262.5 108 t-100.5 267q0 18 4 64q12 91 56 170q29 46 71 86t75 62.5t79 50.5q8 5 12 7l51 27t47.5 25.5t39.5 22.5t36.5 23.5t28.5 22t26 24.5t17.5 26t14.5 31t7 34q3 18 3 43q0 24 -3 51l148 25q6 -40 6 -78q0 -15 -4 -55q-6 -39 -18.5 -73.5t-25.5 -59.5t-38 -51t-42 -41t-52 -37.5 t-52.5 -32.5t-58.5 -33q-78 -37 -131.5 -74.5t-89.5 -93.5q-59 -76 -59 -158q0 -92 65 -160.5t168 -68.5q84 0 168.5 40t91.5 93q0 9 -3.5 14t-12 7t-11.5 2h-14z" />
<glyph unicode="&#xc0;" horiz-adv-x="1673" d="M1012 1487l-353 246l117 137l316 -277zM1413 -2h-174l-125 453h-555l-188 -342q-29 -55 -84.5 -86t-110.5 -31q-81 0 -138 58t-48 136l160 23q0 -28 6.5 -40.5t27.5 -12.5q17 0 26 6.5t17 21.5l705 1225h69zM924 1106l2 6zM1067 610l-139 500l-279 -500h418z" />
<glyph unicode="&#xc1;" horiz-adv-x="1673" d="M965 1487l-58 106l385 277l86 -137zM1413 -2h-174l-125 453h-555l-188 -342q-29 -55 -84.5 -86t-110.5 -31q-81 0 -138 58t-48 136l160 23q0 -28 6.5 -40.5t27.5 -12.5q17 0 26 6.5t17 21.5l705 1225h69zM924 1106l2 6zM1067 610l-139 500l-279 -500h418z" />
<glyph unicode="&#xc2;" horiz-adv-x="1673" d="M844 1571h-201l334 330h119l239 -330h-192l-123 166zM1413 -2h-174l-125 453h-555l-188 -342q-29 -55 -84.5 -86t-110.5 -31q-81 0 -138 58t-48 136l160 23q0 -28 6.5 -40.5t27.5 -12.5q17 0 26 6.5t17 21.5l705 1225h69zM924 1106l2 6zM1067 610l-139 500l-279 -500h418 z" />
<glyph unicode="&#xc3;" horiz-adv-x="1673" d="M1307 1815l92 -123q-47 -34 -63.5 -45t-52.5 -29.5t-69 -24.5t-77 -6q-35 0 -98 16.5t-112.5 33t-52.5 16.5q-39 0 -71.5 -14.5t-91.5 -63.5l-90 123q138 108 256 108q44 0 86.5 -11t70 -23.5t58.5 -23.5t55 -11q39 0 74 19t86 59zM1413 -2h-174l-125 453h-555l-188 -342 q-29 -55 -84.5 -86t-110.5 -31q-81 0 -138 58t-48 136l160 23q0 -28 6.5 -40.5t27.5 -12.5q17 0 26 6.5t17 21.5l705 1225h69zM924 1106l2 6zM1067 610l-139 500l-279 -500h418z" />
<glyph unicode="&#xc4;" horiz-adv-x="1673" d="M709 1599q-41 0 -70 30.5t-29 70.5q0 44 35.5 79.5t77.5 35.5t72 -30.5t30 -72.5q0 -43 -36.5 -78t-79.5 -35zM1149 1599q-41 0 -69.5 30.5t-28.5 70.5q0 44 35 79.5t77 35.5t72.5 -30.5t30.5 -72.5t-37 -77.5t-80 -35.5zM1413 -2h-174l-125 453h-555l-188 -342 q-29 -55 -84.5 -86t-110.5 -31q-81 0 -138 58t-48 136l160 23q0 -28 6.5 -40.5t27.5 -12.5q17 0 26 6.5t17 21.5l705 1225h69zM924 1106l2 6zM1067 610l-139 500l-279 -500h418z" />
<glyph unicode="&#xc5;" horiz-adv-x="1673" d="M979 1456q-92 0 -145.5 53.5t-53.5 139.5q0 113 71 188.5t181 75.5q92 0 146.5 -54.5t54.5 -140.5q0 -114 -74 -188t-180 -74zM926 1675q-2 -8 -2 -20q0 -32 16 -49t43 -17q43 0 76 35.5t33 85.5q0 32 -16.5 50t-47.5 18q-40 0 -67 -28t-35 -75zM1413 -2h-174l-125 453 h-555l-188 -342q-29 -55 -84.5 -86t-110.5 -31q-81 0 -138 58t-48 136l160 23q0 -28 6.5 -40.5t27.5 -12.5q17 0 26 6.5t17 21.5l705 1225h69zM924 1106l2 6zM1067 610l-139 500l-279 -500h418z" />
<glyph unicode="&#xc6;" horiz-adv-x="1935" d="M1851 1245h-768l-59 -424h629l-23 -162h-629l-69 -499h809l-23 -162h-979l64 453h-340l-297 -453h-203l936 1407h975zM563 610h262l66 492l39 78z" />
<glyph unicode="&#xc7;" horiz-adv-x="1531" d="M1229 1145l2 14q0 17 -17 51q-41 47 -119.5 68.5t-160.5 21.5q-117 0 -232 -51t-205 -135t-152 -197.5t-79 -234.5q-6 -43 -6 -86q0 -206 133.5 -344.5t345.5 -138.5q148 0 281 68.5t221 187.5l123 -97q-114 -148 -273.5 -228.5t-326.5 -88.5l-14 -33q58 -16 87 -63.5 t29 -108.5q0 -43 -20 -89.5t-54 -85t-88.5 -61t-115.5 -16.5l14 154q8 -2 21 -2q37 0 64.5 30.5t27.5 67.5q0 41 -62 41h-92l45 178q-225 41 -363.5 215t-138.5 410q0 50 9 106q28 200 150.5 375.5t303 279t371.5 103.5q57 0 117 -10t119.5 -31t108.5 -58.5t73 -86.5 q28 -48 28 -111q0 -93 -65.5 -163t-153.5 -70q-85 0 -139 61l104 117q29 -23 44 -23q19 0 35.5 19t19.5 45z" />
<glyph unicode="&#xc8;" horiz-adv-x="1349" d="M973 1589l-80 -106l-352 246l116 137zM1305 1247h-768l-60 -426h531l-23 -162h-530l-70 -499h768l-23 -162h-937l178 1247q-33 0 -52 -26q-28 -14 -34 -54q0 -1 -1 -8t-1 -12l-156 8q2 4 2 12q0 92 84 176q86 64 170 64h944z" />
<glyph unicode="&#xc9;" horiz-adv-x="1349" d="M1260 1729l-414 -246l-58 106l386 277zM1305 1247h-768l-60 -426h531l-23 -162h-530l-70 -499h768l-23 -162h-937l178 1247q-33 0 -52 -26q-28 -14 -34 -54q0 -1 -1 -8t-1 -12l-156 8q2 4 2 12q0 92 84 176q86 64 170 64h944z" />
<glyph unicode="&#xca;" horiz-adv-x="1349" d="M1217 1567h-193l-123 166l-176 -166h-201l334 329h119zM1305 1247h-768l-60 -426h531l-23 -162h-530l-70 -499h768l-23 -162h-937l178 1247q-33 0 -52 -26q-28 -14 -34 -54q0 -1 -1 -8t-1 -12l-156 8q2 4 2 12q0 92 84 176q86 64 170 64h944z" />
<glyph unicode="&#xcb;" horiz-adv-x="1349" d="M604 1810q42 0 72.5 -30t30.5 -72t-37 -77.5t-80 -35.5q-41 0 -69.5 30.5t-28.5 70.5q0 44 35 79t77 35zM1044 1810q42 0 72.5 -30t30.5 -72t-37 -77.5t-80 -35.5q-41 0 -69.5 30.5t-28.5 70.5q0 44 35 79t77 35zM1305 1247h-768l-60 -426h531l-23 -162h-530l-70 -499 h768l-23 -162h-937l178 1247q-33 0 -52 -26q-28 -14 -34 -54q0 -1 -1 -8t-1 -12l-156 8q2 4 2 12q0 92 84 176q86 64 170 64h944z" />
<glyph unicode="&#xcc;" horiz-adv-x="466" d="M442 1589l-80 -106l-352 246l117 137zM211 -2h-168l197 1407h168z" />
<glyph unicode="&#xcd;" horiz-adv-x="466" d="M729 1729l-414 -246l-57 106l385 277zM211 -2h-168l197 1407h168z" />
<glyph unicode="&#xce;" horiz-adv-x="466" d="M686 1567h-192l-123 166l-176 -166h-201l334 329h118zM211 -2h-168l197 1407h168z" />
<glyph unicode="&#xcf;" horiz-adv-x="466" d="M74 1810q42 0 72 -30t30 -72t-37 -77.5t-80 -35.5q-41 0 -69.5 30.5t-28.5 70.5q0 44 35.5 79t77.5 35zM514 1810q42 0 72 -30t30 -72q0 -43 -36.5 -78t-79.5 -35q-41 0 -70 30.5t-29 70.5q0 44 35.5 79t77.5 35zM211 -2h-168l197 1407h168z" />
<glyph unicode="&#xd0;" horiz-adv-x="1662" d="M389 1415h596q265 -23 414 -184.5t149 -425.5q0 -59 -10 -137q-50 -352 -296 -519t-679 -167q-151 0 -231 8l-60 4h-2l-57 8l90 629h-244l23 162h244l67 464q-53 -3 -71 -30q-29 -15 -29 -45l-27 -21l-137 4q7 113 88 191q84 62 172 59zM469 631l-70 -486 q185 -10 310 -10q267 0 447 149t218 418q8 49 8 107q0 200 -114.5 319.5t-319.5 128.5h-389l-67 -464h227l-23 -162h-227z" />
<glyph unicode="&#xd1;" horiz-adv-x="1611" d="M1327 1810l92 -122q-47 -34 -63.5 -45t-52.5 -29.5t-69 -24.5t-77 -6q-35 0 -97.5 16.5t-112 33t-52.5 16.5q-39 0 -72.5 -15t-91.5 -63l-90 123q138 108 256 108q44 0 86.5 -11t70 -23.5t58.5 -23.5t55 -11q39 0 74.5 18.5t85.5 58.5zM707 1149l567 -813l-10 26 l137 1041h166l-197 -1405h-70l-788 1128l12 -22l-118 -916q-8 -63 -51.5 -110t-92.5 -66.5t-94 -19.5q-72 0 -125 53.5t-53 128.5q0 19 2 27q0 16 2 20l164 -8q-11 -22 -11 -27v-6q0 -13 10 -21.5t23 -8.5q21 0 38.5 15.5t19.5 31.5l170 1208h108z" />
<glyph unicode="&#xd2;" horiz-adv-x="1669" d="M1049 1589l-80 -106l-353 246l117 137zM111 682l4 39q20 143 94.5 277t182.5 233t248.5 159t285.5 60q179 0 324.5 -86.5t225.5 -232.5t80 -320q0 -49 -6 -98l-6 -39q-27 -197 -144 -364.5t-293 -266t-368 -98.5q-181 0 -327 86t-227 232t-81 321q0 40 7 98zM1389 682 l4 39q6 44 6 86q0 209 -137.5 347t-341.5 138q-154 0 -296.5 -81.5t-235.5 -214.5t-114 -283l-6 -39q-6 -44 -6 -84q0 -209 136.5 -348.5t340.5 -139.5q153 0 295.5 79.5t237.5 213.5t117 287z" />
<glyph unicode="&#xd3;" horiz-adv-x="1669" d="M1335 1729l-413 -246l-58 106l385 277zM111 682l4 39q20 143 94.5 277t182.5 233t248.5 159t285.5 60q179 0 324.5 -86.5t225.5 -232.5t80 -320q0 -49 -6 -98l-6 -39q-27 -197 -144 -364.5t-293 -266t-368 -98.5q-181 0 -327 86t-227 232t-81 321q0 40 7 98zM1389 682 l4 39q6 44 6 86q0 209 -137.5 347t-341.5 138q-154 0 -296.5 -81.5t-235.5 -214.5t-114 -283l-6 -39q-6 -44 -6 -84q0 -209 136.5 -348.5t340.5 -139.5q153 0 295.5 79.5t237.5 213.5t117 287z" />
<glyph unicode="&#xd4;" horiz-adv-x="1669" d="M1292 1567h-192l-123 166l-176 -166h-201l334 329h119zM111 682l4 39q20 143 94.5 277t182.5 233t248.5 159t285.5 60q179 0 324.5 -86.5t225.5 -232.5t80 -320q0 -49 -6 -98l-6 -39q-27 -197 -144 -364.5t-293 -266t-368 -98.5q-181 0 -327 86t-227 232t-81 321 q0 40 7 98zM1389 682l4 39q6 44 6 86q0 209 -137.5 347t-341.5 138q-154 0 -296.5 -81.5t-235.5 -214.5t-114 -283l-6 -39q-6 -44 -6 -84q0 -209 136.5 -348.5t340.5 -139.5q153 0 295.5 79.5t237.5 213.5t117 287z" />
<glyph unicode="&#xd5;" horiz-adv-x="1669" d="M1264 1810l92 -122q-47 -34 -63.5 -45t-52.5 -29.5t-69 -24.5t-77 -6q-35 0 -98 16.5t-112.5 33t-52.5 16.5q-39 0 -71.5 -14.5t-91.5 -63.5l-90 123q138 108 256 108q44 0 86.5 -11t70 -23.5t58.5 -23.5t55 -11q39 0 74.5 18.5t85.5 58.5zM111 682l4 39q20 143 94.5 277 t182.5 233t248.5 159t285.5 60q179 0 324.5 -86.5t225.5 -232.5t80 -320q0 -49 -6 -98l-6 -39q-27 -197 -144 -364.5t-293 -266t-368 -98.5q-181 0 -327 86t-227 232t-81 321q0 40 7 98zM1389 682l4 39q6 44 6 86q0 209 -137.5 347t-341.5 138q-154 0 -296.5 -81.5 t-235.5 -214.5t-114 -283l-6 -39q-6 -44 -6 -84q0 -209 136.5 -348.5t340.5 -139.5q153 0 295.5 79.5t237.5 213.5t117 287z" />
<glyph unicode="&#xd6;" horiz-adv-x="1669" d="M680 1810q42 0 72 -30t30 -72q0 -43 -36.5 -78t-79.5 -35q-41 0 -70 30.5t-29 70.5q0 44 35.5 79t77.5 35zM1120 1810q42 0 72.5 -30t30.5 -72t-37 -77.5t-80 -35.5q-41 0 -69.5 30.5t-28.5 70.5q0 44 35 79t77 35zM111 682l4 39q20 143 94.5 277t182.5 233t248.5 159 t285.5 60q179 0 324.5 -86.5t225.5 -232.5t80 -320q0 -49 -6 -98l-6 -39q-27 -197 -144 -364.5t-293 -266t-368 -98.5q-181 0 -327 86t-227 232t-81 321q0 40 7 98zM1389 682l4 39q6 44 6 86q0 209 -137.5 347t-341.5 138q-154 0 -296.5 -81.5t-235.5 -214.5t-114 -283 l-6 -39q-6 -44 -6 -84q0 -209 136.5 -348.5t340.5 -139.5q153 0 295.5 79.5t237.5 213.5t117 287z" />
<glyph unicode="&#xd7;" horiz-adv-x="1085" d="M958 838l-321 -283l254 -295l-133 -121l-252 297l-340 -299l-103 117l340 295l-243 285l131 118l244 -284l319 284z" />
<glyph unicode="&#xd8;" horiz-adv-x="1669" d="M1415 1350l-55 -70q93 -89 144.5 -210.5t51.5 -258.5q0 -49 -6 -98l-6 -39q-27 -197 -144 -364.5t-293 -266t-368 -98.5q-212 0 -372 116l-93 -112l-172 51l144 174q-142 175 -142 410q0 40 7 98l4 39q20 143 94.5 277t182.5 233t248.5 159t285.5 60q164 0 303 -74l20 25 zM274 713l-6 -39q-6 -44 -6 -84q0 -161 88 -289l774 948q-97 43 -204 43q-154 0 -296.5 -81.5t-235.5 -214.5t-114 -283zM1389 682l4 39q6 44 6 86q0 211 -139 350l-793 -973q122 -82 272 -82q153 0 295.5 79.5t237.5 213.5t117 287z" />
<glyph unicode="&#xd9;" horiz-adv-x="1556" d="M1081 1589l-80 -106l-352 246l117 137zM281 1206l-134 105q30 49 89.5 80.5t115.5 31.5q90 0 143.5 -49t53.5 -133q0 -13 -4 -41l-90 -649q-6 -43 -6 -84q0 -149 82 -239.5t243 -90.5q81 0 151.5 24.5t121 66t89 96.5t60.5 114t31 121l119 848h170l-119 -856 q-15 -106 -62 -205t-122 -181.5t-190 -132.5t-251 -50q-120 0 -215 38.5t-155 105t-91.5 153t-31.5 186.5q0 47 6 94l92 649v15q0 15 -6.5 23t-11 8.5t-11.5 0.5q-49 0 -67 -49z" />
<glyph unicode="&#xda;" horiz-adv-x="1556" d="M1368 1729l-414 -246l-57 106l385 277zM281 1206l-134 105q30 49 89.5 80.5t115.5 31.5q90 0 143.5 -49t53.5 -133q0 -13 -4 -41l-90 -649q-6 -43 -6 -84q0 -149 82 -239.5t243 -90.5q81 0 151.5 24.5t121 66t89 96.5t60.5 114t31 121l119 848h170l-119 -856 q-15 -106 -62 -205t-122 -181.5t-190 -132.5t-251 -50q-120 0 -215 38.5t-155 105t-91.5 153t-31.5 186.5q0 47 6 94l92 649v15q0 15 -6.5 23t-11 8.5t-11.5 0.5q-49 0 -67 -49z" />
<glyph unicode="&#xdb;" horiz-adv-x="1556" d="M1325 1567h-192l-123 166l-176 -166h-201l334 329h118zM281 1206l-134 105q30 49 89.5 80.5t115.5 31.5q90 0 143.5 -49t53.5 -133q0 -13 -4 -41l-90 -649q-6 -43 -6 -84q0 -149 82 -239.5t243 -90.5q81 0 151.5 24.5t121 66t89 96.5t60.5 114t31 121l119 848h170 l-119 -856q-15 -106 -62 -205t-122 -181.5t-190 -132.5t-251 -50q-120 0 -215 38.5t-155 105t-91.5 153t-31.5 186.5q0 47 6 94l92 649v15q0 15 -6.5 23t-11 8.5t-11.5 0.5q-49 0 -67 -49z" />
<glyph unicode="&#xdc;" horiz-adv-x="1556" d="M713 1810q42 0 72 -30t30 -72t-37 -77.5t-80 -35.5q-41 0 -69.5 30.5t-28.5 70.5q0 44 35.5 79t77.5 35zM1153 1810q42 0 72 -30t30 -72q0 -43 -36.5 -78t-79.5 -35q-41 0 -70 30.5t-29 70.5q0 44 35.5 79t77.5 35zM281 1206l-134 105q30 49 89.5 80.5t115.5 31.5 q90 0 143.5 -49t53.5 -133q0 -13 -4 -41l-90 -649q-6 -43 -6 -84q0 -149 82 -239.5t243 -90.5q81 0 151.5 24.5t121 66t89 96.5t60.5 114t31 121l119 848h170l-119 -856q-15 -106 -62 -205t-122 -181.5t-190 -132.5t-251 -50q-120 0 -215 38.5t-155 105t-91.5 153 t-31.5 186.5q0 47 6 94l92 649v15q0 15 -6.5 23t-11 8.5t-11.5 0.5q-49 0 -67 -49z" />
<glyph unicode="&#xdd;" horiz-adv-x="1316" d="M1235 1729l-414 -246l-57 106l385 277zM301 1194l-168 25q13 95 84.5 150.5t149.5 55.5q50 0 95 -28t70 -84l213 -514l424 608h197l-555 -797l-86 -612h-178l92 608l-256 637q-11 17 -31 17q-19 0 -35.5 -13t-19.5 -33q0 -12 4 -20z" />
<glyph unicode="&#xde;" horiz-adv-x="1124" d="M373 1165h284q163 -9 257 -108t94 -260q0 -31 -7 -82q-16 -113 -67 -199.5t-127 -139.5t-168.5 -79.5t-196.5 -26.5q-56 0 -137 13l14 157q89 -14 136 -14q154 0 258 78t125 233q4 20 4 60q0 105 -62.5 159t-177.5 54h-252l-141 -1012h-168l197 1407h168z" />
<glyph unicode="&#xdf;" horiz-adv-x="1089" d="M-29 -498l211 1506q12 83 30.5 152t51 134.5t76 110.5t107.5 72.5t143 27.5q128 0 201 -67t73 -172q0 -40 -25.5 -87t-62 -91l-73 -88t-62 -92.5t-25.5 -90.5q0 -37 24.5 -64.5t57.5 -42.5t76.5 -42t71.5 -60q94 -104 65 -280q-13 -94 -57 -163.5t-110.5 -108.5 t-143 -57.5t-164.5 -18.5q-57 0 -239 14l-70 -492h-156zM338 1006l-125 -863q98 -12 211 -12q165 0 243 48.5t93 162.5q7 64 -2 105t-51 92q-22 21 -60.5 45.5t-70 44t-61 46t-44 64.5t-8.5 86t45 113.5t81.5 118.5t77.5 108.5t35 87.5q0 50 -32 75.5t-88 25.5 q-48 0 -86.5 -19t-63.5 -49.5t-44 -78t-30 -94t-20 -107.5z" />
<glyph unicode="&#xe0;" d="M772 1239l-80 -106l-352 245l117 138zM1010 182l123 -96q-34 -55 -85.5 -80.5t-101.5 -25.5q-63 0 -110.5 35.5t-63.5 88.5q-116 -124 -305 -124q-95 0 -170.5 34.5t-122 94.5t-70.5 138t-24 169q0 57 8 104q33 236 189.5 386.5t384.5 150.5q106 0 243 -19h135l-120 -860 v-8q0 -16 9 -25.5t21 -9.5q37 0 60 47zM793 399l73 490q-19 1 -103 8.5t-116 7.5q-163 0 -269 -111.5t-130 -285.5q-6 -43 -6 -86q0 -127 59 -209t174 -82q89 0 160.5 43t114.5 115q34 43 43 110z" />
<glyph unicode="&#xe1;" d="M1059 1378l-414 -245l-57 106l385 277zM1010 182l123 -96q-34 -55 -85.5 -80.5t-101.5 -25.5q-63 0 -110.5 35.5t-63.5 88.5q-116 -124 -305 -124q-95 0 -170.5 34.5t-122 94.5t-70.5 138t-24 169q0 57 8 104q33 236 189.5 386.5t384.5 150.5q106 0 243 -19h135 l-120 -860v-8q0 -16 9 -25.5t21 -9.5q37 0 60 47zM793 399l73 490q-19 1 -103 8.5t-116 7.5q-163 0 -269 -111.5t-130 -285.5q-6 -43 -6 -86q0 -127 59 -209t174 -82q89 0 160.5 43t114.5 115q34 43 43 110z" />
<glyph unicode="&#xe2;" d="M1016 1217h-193l-123 165l-176 -165h-200l333 329h119zM1010 182l123 -96q-34 -55 -85.5 -80.5t-101.5 -25.5q-63 0 -110.5 35.5t-63.5 88.5q-116 -124 -305 -124q-95 0 -170.5 34.5t-122 94.5t-70.5 138t-24 169q0 57 8 104q33 236 189.5 386.5t384.5 150.5 q106 0 243 -19h135l-120 -860v-8q0 -16 9 -25.5t21 -9.5q37 0 60 47zM793 399l73 490q-19 1 -103 8.5t-116 7.5q-163 0 -269 -111.5t-130 -285.5q-6 -43 -6 -86q0 -127 59 -209t174 -82q89 0 160.5 43t114.5 115q34 43 43 110z" />
<glyph unicode="&#xe3;" d="M987 1460l92 -123q-45 -32 -63 -44t-53 -30t-68.5 -24t-77.5 -6q-35 0 -97.5 16.5t-112 32.5t-52.5 16q-40 0 -73 -14.5t-91 -62.5l-90 122q139 109 256 109q56 0 108 -17.5t92.5 -35t69.5 -17.5q39 0 74 19t86 59zM1010 182l123 -96q-34 -55 -85.5 -80.5t-101.5 -25.5 q-63 0 -110.5 35.5t-63.5 88.5q-116 -124 -305 -124q-95 0 -170.5 34.5t-122 94.5t-70.5 138t-24 169q0 57 8 104q33 236 189.5 386.5t384.5 150.5q106 0 243 -19h135l-120 -860v-8q0 -16 9 -25.5t21 -9.5q37 0 60 47zM793 399l73 490q-19 1 -103 8.5t-116 7.5 q-163 0 -269 -111.5t-130 -285.5q-6 -43 -6 -86q0 -127 59 -209t174 -82q89 0 160.5 43t114.5 115q34 43 43 110z" />
<glyph unicode="&#xe4;" d="M403 1460q43 0 73 -30t30 -72t-37 -77.5t-80 -35.5q-41 0 -69.5 30.5t-28.5 70.5q0 44 35 79t77 35zM844 1460q42 0 72 -30t30 -72t-37 -77.5t-80 -35.5q-41 0 -69.5 30.5t-28.5 70.5q0 44 35.5 79t77.5 35zM1010 182l123 -96q-34 -55 -85.5 -80.5t-101.5 -25.5 q-63 0 -110.5 35.5t-63.5 88.5q-116 -124 -305 -124q-95 0 -170.5 34.5t-122 94.5t-70.5 138t-24 169q0 57 8 104q33 236 189.5 386.5t384.5 150.5q106 0 243 -19h135l-120 -860v-8q0 -16 9 -25.5t21 -9.5q37 0 60 47zM793 399l73 490q-19 1 -103 8.5t-116 7.5 q-163 0 -269 -111.5t-130 -285.5q-6 -43 -6 -86q0 -127 59 -209t174 -82q89 0 160.5 43t114.5 115q34 43 43 110z" />
<glyph unicode="&#xe5;" d="M713 1559q92 0 146 -54.5t54 -140.5q0 -114 -74 -188t-180 -74q-92 0 -145 53t-53 139q0 113 71.5 189t180.5 76zM709 1423q-41 0 -68 -28t-35 -74q-2 -8 -2 -21q0 -31 16.5 -48t43.5 -17q43 0 75.5 35.5t32.5 85.5q0 67 -63 67zM1010 182l123 -96q-34 -55 -85.5 -80.5 t-101.5 -25.5q-63 0 -110.5 35.5t-63.5 88.5q-116 -124 -305 -124q-95 0 -170.5 34.5t-122 94.5t-70.5 138t-24 169q0 57 8 104q33 236 189.5 386.5t384.5 150.5q106 0 243 -19h135l-120 -860v-8q0 -16 9 -25.5t21 -9.5q37 0 60 47zM793 399l73 490q-19 1 -103 8.5t-116 7.5 q-163 0 -269 -111.5t-130 -285.5q-6 -43 -6 -86q0 -127 59 -209t174 -82q89 0 160.5 43t114.5 115q34 43 43 110z" />
<glyph unicode="&#xe6;" horiz-adv-x="1701" d="M260 784l-70 127q78 65 185 109q117 37 209 37q137 0 207 -70q55 -49 71 -113q59 69 131 121q108 62 221 62q79 0 148.5 -23.5t112.5 -68.5q90 -77 90 -201q0 -110 -62 -201q-88 -109 -270 -151q-113 -17 -174 -17l-211 -4q0 -122 55 -194q69 -66 205 -66q79 0 156 29 q87 25 180 76l67 -127q-82 -55 -194 -99q-102 -30 -217 -30q-161 0 -250 71q-73 45 -109 127q-49 -85 -116 -131q-115 -67 -260 -67q-73 0 -136.5 20.5t-99.5 58.5q-78 65 -78 183q0 114 62 204q46 60 127.5 97t152 48t144.5 11h174l14 92q6 43 6 74q0 56 -24 96 q-39 41 -121 41q-90 0 -162 -35q-92 -27 -164 -86zM860 543l211 4q180 0 258 65q76 53 76 154q0 72 -52 108.5t-130 36.5q-144 0 -242 -125q-95 -102 -121 -243zM690 455h-166q-128 0 -198 -37q-52 -20 -78.5 -56t-34.5 -92q-2 -12 -2 -30q0 -64 39 -86.5t108 -22.5 q135 0 211 68q45 31 74.5 78t36.5 102z" />
<glyph unicode="&#xe7;" horiz-adv-x="1093" d="M954 711l-161 8q6 27 6 53q0 71 -51 109.5t-130 38.5q-63 0 -119 -25.5t-98 -68.5t-75 -99.5t-53 -117.5t-29 -124q-6 -43 -6 -79q0 -129 67.5 -199t194.5 -70q83 0 160 27t180 80l67 -127q-173 -114 -364 -127l-11 -27q58 -16 87.5 -63.5t29.5 -108.5q0 -43 -20 -89.5 t-54 -85t-88.5 -61t-115.5 -16.5l14 154q8 -2 21 -2q37 0 64.5 30.5t27.5 67.5q0 41 -62 41h-92l41 168q-151 29 -228 134.5t-77 268.5q0 51 6 103q17 115 62.5 217t113 178t159 120t193.5 44q143 0 245 -79.5t102 -207.5q0 -25 -7 -65z" />
<glyph unicode="&#xe8;" horiz-adv-x="1097" d="M741 1239l-79 -106l-353 245l117 138zM838 236l67 -127q-197 -129 -416 -129q-205 0 -308 112.5t-103 296.5q0 49 6 98q12 80 38.5 158.5t72 153.5t104.5 132t141 91.5t176 34.5q146 0 244 -80t98 -211q0 -176 -139.5 -273.5t-365.5 -97.5l-211 -4q3 -131 64.5 -195.5 t189.5 -64.5q61 0 123.5 16t105.5 35t113 54zM254 543l211 4q154 0 245 53t91 166q0 70 -53 107.5t-130 37.5q-75 0 -140.5 -35.5t-109.5 -92t-73 -118t-41 -122.5z" />
<glyph unicode="&#xe9;" horiz-adv-x="1097" d="M1028 1378l-414 -245l-57 106l385 277zM838 236l67 -127q-197 -129 -416 -129q-205 0 -308 112.5t-103 296.5q0 49 6 98q12 80 38.5 158.5t72 153.5t104.5 132t141 91.5t176 34.5q146 0 244 -80t98 -211q0 -176 -139.5 -273.5t-365.5 -97.5l-211 -4q3 -131 64.5 -195.5 t189.5 -64.5q61 0 123.5 16t105.5 35t113 54zM254 543l211 4q154 0 245 53t91 166q0 70 -53 107.5t-130 37.5q-75 0 -140.5 -35.5t-109.5 -92t-73 -118t-41 -122.5z" />
<glyph unicode="&#xea;" horiz-adv-x="1097" d="M985 1217h-192l-123 165l-176 -165h-201l334 329h118zM838 236l67 -127q-197 -129 -416 -129q-205 0 -308 112.5t-103 296.5q0 49 6 98q12 80 38.5 158.5t72 153.5t104.5 132t141 91.5t176 34.5q146 0 244 -80t98 -211q0 -176 -139.5 -273.5t-365.5 -97.5l-211 -4 q3 -131 64.5 -195.5t189.5 -64.5q61 0 123.5 16t105.5 35t113 54zM254 543l211 4q154 0 245 53t91 166q0 70 -53 107.5t-130 37.5q-75 0 -140.5 -35.5t-109.5 -92t-73 -118t-41 -122.5z" />
<glyph unicode="&#xeb;" horiz-adv-x="1097" d="M373 1460q42 0 72 -30t30 -72t-37 -77.5t-80 -35.5q-41 0 -69.5 30.5t-28.5 70.5q0 44 35.5 79t77.5 35zM813 1460q42 0 72 -30t30 -72q0 -43 -36.5 -78t-79.5 -35q-41 0 -70 30.5t-29 70.5q0 44 35.5 79t77.5 35zM838 236l67 -127q-197 -129 -416 -129 q-205 0 -308 112.5t-103 296.5q0 49 6 98q12 80 38.5 158.5t72 153.5t104.5 132t141 91.5t176 34.5q146 0 244 -80t98 -211q0 -176 -139.5 -273.5t-365.5 -97.5l-211 -4q3 -131 64.5 -195.5t189.5 -64.5q61 0 123.5 16t105.5 35t113 54zM254 543l211 4q154 0 245 53t91 166 q0 70 -53 107.5t-130 37.5q-75 0 -140.5 -35.5t-109.5 -92t-73 -118t-41 -122.5z" />
<glyph unicode="&#xec;" horiz-adv-x="532" d="M369 1223l-80 -107l-352 246l116 137zM203 178v-8q0 -14 9.5 -24.5t20.5 -10.5q42 0 58 47l127 -96q-34 -49 -85.5 -77.5t-105.5 -28.5q-77 0 -129.5 52t-52.5 126q0 18 2 28l119 854h158z" />
<glyph unicode="&#xed;" horiz-adv-x="532" d="M655 1362l-413 -246l-58 107l385 276zM203 178v-8q0 -14 9.5 -24.5t20.5 -10.5q42 0 58 47l127 -96q-34 -49 -85.5 -77.5t-105.5 -28.5q-77 0 -129.5 52t-52.5 126q0 18 2 28l119 854h158z" />
<glyph unicode="&#xee;" horiz-adv-x="532" d="M612 1200h-192l-123 166l-176 -166h-201l334 330h119zM203 178v-8q0 -14 9.5 -24.5t20.5 -10.5q42 0 58 47l127 -96q-34 -49 -85.5 -77.5t-105.5 -28.5q-77 0 -129.5 52t-52.5 126q0 18 2 28l119 854h158z" />
<glyph unicode="&#xef;" horiz-adv-x="532" d="M0 1444q42 0 72 -30.5t30 -72.5t-36.5 -77t-79.5 -35q-41 0 -70 30t-29 70q0 44 35.5 79.5t77.5 35.5zM440 1444q42 0 72.5 -30.5t30.5 -72.5t-37 -77t-80 -35q-41 0 -69.5 30t-28.5 70q0 44 35 79.5t77 35.5zM203 178v-8q0 -14 9.5 -24.5t20.5 -10.5q42 0 58 47l127 -96 q-34 -49 -85.5 -77.5t-105.5 -28.5q-77 0 -129.5 52t-52.5 126q0 18 2 28l119 854h158z" />
<glyph unicode="&#xf0;" horiz-adv-x="1247" d="M946 1331l207 62l21 -156l-197 -63q54 -270 72 -378t18 -180q0 -44 -6 -94q-35 -254 -180 -398t-365 -144q-208 0 -321 122.5t-113 319.5q0 48 6 98q15 112 63 210t119.5 170.5t170 114.5t208.5 42q57 0 182 -17l-14 86l-199 -59l-18 156l186 59l-51 207l164 49zM688 903 q-192 0 -303.5 -101.5t-138.5 -285.5q-6 -47 -6 -86q0 -140 72 -219.5t208 -79.5q158 0 254.5 103t122.5 280q8 66 8 102q0 109 -33 265q-29 4 -65.5 10t-62.5 9t-56 3z" />
<glyph unicode="&#xf1;" horiz-adv-x="1271" d="M1016 1460l92 -123q-45 -32 -63 -44t-53 -30t-68.5 -24t-77.5 -6q-35 0 -97.5 16.5t-112 32.5t-52.5 16q-40 0 -73 -14.5t-91 -62.5l-90 122q139 109 256 109q56 0 108 -17.5t92.5 -35t69.5 -17.5q39 0 74 19t86 59zM121 963l106 92q83 -52 101 -158q155 160 356 160 q148 0 229.5 -72t81.5 -209q0 -6 -1 -18.5t-1 -18.5l-80 -567v-6q0 -16 11 -26.5t22 -8.5q32 0 60 41l120 -92q-72 -107 -188 -107q-81 0 -132.5 54t-51.5 129q0 16 2 24l73 514q5 57 5 62q0 78 -39.5 113.5t-124.5 35.5q-98 0 -174 -46.5t-162 -141.5l-103 -719h-157 l102 731q6 41 6 72q0 107 -61 162z" />
<glyph unicode="&#xf2;" horiz-adv-x="1269" d="M803 1239l-80 -106l-352 245l116 138zM672 1057q207 0 331.5 -128.5t124.5 -332.5q0 -42 -6 -88q-34 -231 -199 -379.5t-388 -148.5q-207 0 -330 126.5t-123 327.5q0 42 6 88q15 111 66 209.5t127 170.5t178 113.5t213 41.5zM668 905q-171 0 -283.5 -112.5t-136.5 -284.5 q-6 -41 -6 -74q0 -139 80 -221t221 -82q169 0 282.5 112.5t137.5 288.5q6 40 6 74q0 138 -80.5 218.5t-220.5 80.5z" />
<glyph unicode="&#xf3;" horiz-adv-x="1269" d="M1090 1378l-414 -245l-58 106l386 277zM672 1057q207 0 331.5 -128.5t124.5 -332.5q0 -42 -6 -88q-34 -231 -199 -379.5t-388 -148.5q-207 0 -330 126.5t-123 327.5q0 42 6 88q15 111 66 209.5t127 170.5t178 113.5t213 41.5zM668 905q-171 0 -283.5 -112.5 t-136.5 -284.5q-6 -41 -6 -74q0 -139 80 -221t221 -82q169 0 282.5 112.5t137.5 288.5q6 40 6 74q0 138 -80.5 218.5t-220.5 80.5z" />
<glyph unicode="&#xf4;" horiz-adv-x="1269" d="M1047 1217h-193l-123 165l-176 -165h-201l334 329h119zM672 1057q207 0 331.5 -128.5t124.5 -332.5q0 -42 -6 -88q-34 -231 -199 -379.5t-388 -148.5q-207 0 -330 126.5t-123 327.5q0 42 6 88q15 111 66 209.5t127 170.5t178 113.5t213 41.5zM668 905 q-171 0 -283.5 -112.5t-136.5 -284.5q-6 -41 -6 -74q0 -139 80 -221t221 -82q169 0 282.5 112.5t137.5 288.5q6 40 6 74q0 138 -80.5 218.5t-220.5 80.5z" />
<glyph unicode="&#xf5;" horiz-adv-x="1269" d="M1018 1460l92 -123q-45 -32 -63 -44t-53 -30t-68.5 -24t-77.5 -6q-35 0 -97.5 16.5t-112 32.5t-52.5 16q-40 0 -73 -14.5t-91 -62.5l-90 122q139 109 256 109q56 0 108 -17.5t92.5 -35t69.5 -17.5q39 0 74 19t86 59zM672 1057q207 0 331.5 -128.5t124.5 -332.5 q0 -42 -6 -88q-34 -231 -199 -379.5t-388 -148.5q-207 0 -330 126.5t-123 327.5q0 42 6 88q15 111 66 209.5t127 170.5t178 113.5t213 41.5zM668 905q-171 0 -283.5 -112.5t-136.5 -284.5q-6 -41 -6 -74q0 -139 80 -221t221 -82q169 0 282.5 112.5t137.5 288.5q6 40 6 74 q0 138 -80.5 218.5t-220.5 80.5z" />
<glyph unicode="&#xf6;" horiz-adv-x="1269" d="M434 1460q42 0 72.5 -30t30.5 -72t-37 -77.5t-80 -35.5q-41 0 -69.5 30.5t-28.5 70.5q0 44 35 79t77 35zM874 1460q42 0 72.5 -30t30.5 -72t-37 -77.5t-80 -35.5q-41 0 -69.5 30.5t-28.5 70.5q0 44 35 79t77 35zM672 1057q207 0 331.5 -128.5t124.5 -332.5q0 -42 -6 -88 q-34 -231 -199 -379.5t-388 -148.5q-207 0 -330 126.5t-123 327.5q0 42 6 88q15 111 66 209.5t127 170.5t178 113.5t213 41.5zM668 905q-171 0 -283.5 -112.5t-136.5 -284.5q-6 -41 -6 -74q0 -139 80 -221t221 -82q169 0 282.5 112.5t137.5 288.5q6 40 6 74 q0 138 -80.5 218.5t-220.5 80.5z" />
<glyph unicode="&#xf7;" horiz-adv-x="1034" d="M510 1032q42 0 72 -30t30 -72q0 -43 -36.5 -78t-79.5 -35q-41 0 -70 30.5t-29 70.5q0 44 35.5 79t77.5 35zM883 530h-787l23 150h786zM426 438q42 0 72 -30t30 -72q0 -43 -36.5 -78t-79.5 -35q-41 0 -70 30.5t-29 70.5q0 44 35.5 79t77.5 35z" />
<glyph unicode="&#xf8;" horiz-adv-x="1269" d="M1085 1001l-73 -81q116 -122 116 -316q0 -44 -6 -90q-18 -128 -77.5 -232.5t-142.5 -169.5t-178.5 -100t-191.5 -35q-115 0 -217 50l-59 -78l-133 84l74 80q-115 115 -115 315q0 46 6 92q15 111 66 210t126.5 171t177 114t212.5 42q128 0 221 -49l61 79zM287 238l516 643 q-41 24 -119 24q-174 0 -293 -109t-145 -294q-6 -40 -6 -80q0 -110 47 -184zM924 797l-514 -647q56 -21 131 -21q154 0 275.5 109.5t148.5 302.5q6 44 6 80q0 105 -47 176z" />
<glyph unicode="&#xf9;" horiz-adv-x="1300" d="M754 1223l-80 -107l-352 246l116 137zM119 938l98 127q31 -26 43.5 -37t39.5 -39t39 -48.5t23 -52.5t11 -65q0 -22 -2 -32l-64 -447q-4 -40 -4 -57q0 -81 40 -117.5t126 -36.5q68 0 125 23t103 61t106 105l104 718h158l-123 -864v-8q0 -14 10 -24.5t23 -10.5q34 0 57 45 l125 -98q-74 -103 -186 -103q-71 0 -121.5 42t-61.5 104q-78 -75 -157.5 -107t-175.5 -32q-150 0 -231 71t-81 207q0 6 1 18.5t1 18.5l72 500q3 24 -9.5 48t-26 37.5t-37 32.5t-25.5 21z" />
<glyph unicode="&#xfa;" horiz-adv-x="1300" d="M1040 1362l-413 -246l-58 107l385 276zM119 938l98 127q31 -26 43.5 -37t39.5 -39t39 -48.5t23 -52.5t11 -65q0 -22 -2 -32l-64 -447q-4 -40 -4 -57q0 -81 40 -117.5t126 -36.5q68 0 125 23t103 61t106 105l104 718h158l-123 -864v-8q0 -14 10 -24.5t23 -10.5q34 0 57 45 l125 -98q-74 -103 -186 -103q-71 0 -121.5 42t-61.5 104q-78 -75 -157.5 -107t-175.5 -32q-150 0 -231 71t-81 207q0 6 1 18.5t1 18.5l72 500q3 24 -9.5 48t-26 37.5t-37 32.5t-25.5 21z" />
<glyph unicode="&#xfb;" horiz-adv-x="1300" d="M997 1200h-192l-123 166l-176 -166h-201l334 330h119zM119 938l98 127q31 -26 43.5 -37t39.5 -39t39 -48.5t23 -52.5t11 -65q0 -22 -2 -32l-64 -447q-4 -40 -4 -57q0 -81 40 -117.5t126 -36.5q68 0 125 23t103 61t106 105l104 718h158l-123 -864v-8q0 -14 10 -24.5 t23 -10.5q34 0 57 45l125 -98q-74 -103 -186 -103q-71 0 -121.5 42t-61.5 104q-78 -75 -157.5 -107t-175.5 -32q-150 0 -231 71t-81 207q0 6 1 18.5t1 18.5l72 500q3 24 -9.5 48t-26 37.5t-37 32.5t-25.5 21z" />
<glyph unicode="&#xfc;" horiz-adv-x="1300" d="M385 1444q42 0 72 -30.5t30 -72.5t-36.5 -77t-79.5 -35q-41 0 -70 30t-29 70q0 44 35.5 79.5t77.5 35.5zM825 1444q42 0 72.5 -30.5t30.5 -72.5t-37 -77t-80 -35q-41 0 -69.5 30t-28.5 70q0 44 35 79.5t77 35.5zM119 938l98 127q31 -26 43.5 -37t39.5 -39t39 -48.5 t23 -52.5t11 -65q0 -22 -2 -32l-64 -447q-4 -40 -4 -57q0 -81 40 -117.5t126 -36.5q68 0 125 23t103 61t106 105l104 718h158l-123 -864v-8q0 -14 10 -24.5t23 -10.5q34 0 57 45l125 -98q-74 -103 -186 -103q-71 0 -121.5 42t-61.5 104q-78 -75 -157.5 -107t-175.5 -32 q-150 0 -231 71t-81 207q0 6 1 18.5t1 18.5l72 500q3 24 -9.5 48t-26 37.5t-37 32.5t-25.5 21z" />
<glyph unicode="&#xfd;" horiz-adv-x="1161" d="M651 1116l-57 107l385 276l86 -137zM907 1040h158l-107 -745l-71 -508q-23 -165 -124.5 -259.5t-236.5 -94.5q-134 0 -208 85.5t-74 207.5q0 17 4 49q8 57 35.5 118.5t70.5 102.5q-100 19 -155.5 84t-55.5 164q0 17 4 57l70 498q4 34 -40.5 84.5t-57.5 48.5l98 133 q33 -28 47 -41t40 -40.5t37.5 -48t21.5 -51t10 -61.5q0 -20 -2 -32l-64 -447q-4 -40 -4 -57q0 -80 39.5 -117t124.5 -37q92 0 161.5 39t149.5 121l-2 -2q20 24 26 38t9 38zM733 -213l41 291q-47 -33 -96 -58l-107 -51q-80 -40 -120 -86.5t-50 -120.5q-2 -12 -2 -38 q0 -64 32.5 -101t96.5 -37q81 0 137 55.5t68 145.5z" />
<glyph unicode="&#xfe;" horiz-adv-x="1138" d="M250 1489l156 -4q-1 -11 -7 -46t-8 -57q-41 -294 -69 -438q118 113 288 113q126 0 216 -60t131.5 -157t41.5 -219q0 -35 -8 -105q-16 -114 -64 -211.5t-120.5 -169t-173.5 -112.5t-217 -41q-92 0 -215 14l-74 -492h-156zM291 672l-78 -525q163 -16 197 -16 q181 0 288 105.5t133 283.5q7 51 7 84q0 132 -59.5 217.5t-172.5 85.5q-103 0 -195 -65.5t-120 -169.5z" />
<glyph unicode="&#xff;" horiz-adv-x="1161" d="M395 1229q-41 0 -69.5 30t-28.5 70q0 44 35.5 79.5t77.5 35.5t72 -30.5t30 -72.5t-37 -77t-80 -35zM836 1229q-41 0 -70 30t-29 70q0 44 35.5 79.5t77.5 35.5t72 -30.5t30 -72.5t-36.5 -77t-79.5 -35zM1065 1040l-107 -745l-71 -508q-23 -165 -124.5 -259.5t-236.5 -94.5 q-134 0 -208 85.5t-74 207.5q0 17 4 49q8 57 35.5 118.5t70.5 102.5q-100 19 -155.5 84t-55.5 164q0 17 4 57l70 498q4 34 -40.5 84.5t-57.5 48.5l98 133q33 -28 47 -41t40 -40.5t37.5 -48t21.5 -51t10 -61.5q0 -20 -2 -32l-64 -447q-4 -40 -4 -57q0 -80 39.5 -117 t124.5 -37q92 0 161.5 39t149.5 121l-2 -2q20 24 26 38t9 38l96 673h158zM733 -213l41 291q-47 -33 -96 -58l-107 -51q-80 -40 -120 -86.5t-50 -120.5q-2 -12 -2 -38q0 -64 32.5 -101t96.5 -37q81 0 137 55.5t68 145.5z" />
<glyph unicode="&#x152;" horiz-adv-x="2467" d="M1554 850l2 -6h574l-23 -162h-561l-2 -8q-7 -56 -33 -144l-49 -348h813l-22 -162h-977l24 170q-114 -116 -259.5 -180.5t-301.5 -64.5q-181 0 -327 86t-227 232t-81 321q0 40 7 98l4 39q20 143 94.5 277t182.5 233t248.5 159t285.5 60q161 0 294 -69.5t220 -192.5l33 239 h937l-22 -159h-774zM274 713l-6 -39q-6 -44 -6 -84q0 -209 136.5 -348.5t340.5 -139.5q193 0 363 122.5t246 307.5l47 340q-22 185 -155 302.5t-320 117.5q-154 0 -296.5 -81.5t-235.5 -214.5t-114 -283z" />
<glyph unicode="&#x153;" horiz-adv-x="1968" d="M1698 236l67 -125q-191 -131 -411 -131q-146 0 -239 60t-130 167q-85 -116 -200.5 -171.5t-247.5 -55.5q-207 0 -331 125t-124 325q0 46 6 92q33 230 197 382.5t389 152.5q143 0 246 -65t151 -179q72 115 175.5 179.5t232.5 64.5q145 0 242.5 -77.5t97.5 -209.5 q0 -81 -29.5 -146t-78.5 -107t-115.5 -70t-136.5 -40t-146 -12l-209 -4q1 -134 63.5 -197t188.5 -63q89 0 163 25.5t179 79.5zM1116 543l209 4q157 0 245.5 53.5t88.5 167.5q0 72 -51.5 107.5t-126.5 35.5q-93 0 -173 -56t-127.5 -138t-64.5 -174zM668 905 q-166 0 -280.5 -109.5t-139.5 -283.5q-6 -38 -6 -72q0 -140 79.5 -224.5t219.5 -84.5q168 0 283 112.5t139 288.5q6 38 6 74q0 137 -80.5 218t-220.5 81z" />
<glyph unicode="&#x178;" horiz-adv-x="1316" d="M580 1810q42 0 72 -30t30 -72t-37 -77.5t-80 -35.5q-41 0 -69.5 30.5t-28.5 70.5q0 44 35.5 79t77.5 35zM1020 1810q42 0 72 -30t30 -72q0 -43 -36.5 -78t-79.5 -35q-41 0 -70 30.5t-29 70.5q0 44 35.5 79t77.5 35zM301 1194l-168 25q13 95 84.5 150.5t149.5 55.5 q50 0 95 -28t70 -84l213 -514l424 608h197l-555 -797l-86 -612h-178l92 608l-256 637q-11 17 -31 17q-19 0 -35.5 -13t-19.5 -33q0 -12 4 -20z" />
<glyph unicode="&#x2c6;" horiz-adv-x="894" d="M856 1200h-192l-123 166l-176 -166h-201l334 330h118z" />
<glyph unicode="&#x2dc;" horiz-adv-x="1058" d="M920 1444l92 -123q-45 -32 -63 -44t-53 -30t-68.5 -24t-77.5 -6q-35 0 -98 16.5t-112.5 32.5t-52.5 16q-39 0 -71.5 -14.5t-91.5 -63.5l-91 123q139 109 256 109q56 0 108 -17.5t93 -35t70 -17.5q39 0 74 19t86 59z" />
<glyph unicode="&#x2000;" horiz-adv-x="956" />
<glyph unicode="&#x2001;" horiz-adv-x="1913" />
<glyph unicode="&#x2002;" horiz-adv-x="956" />
<glyph unicode="&#x2003;" horiz-adv-x="1913" />
<glyph unicode="&#x2004;" horiz-adv-x="637" />
<glyph unicode="&#x2005;" horiz-adv-x="478" />
<glyph unicode="&#x2006;" horiz-adv-x="318" />
<glyph unicode="&#x2007;" horiz-adv-x="318" />
<glyph unicode="&#x2008;" horiz-adv-x="239" />
<glyph unicode="&#x2009;" horiz-adv-x="382" />
<glyph unicode="&#x200a;" horiz-adv-x="106" />
<glyph unicode="&#x2010;" horiz-adv-x="927" d="M758 549h-637l22 162h637z" />
<glyph unicode="&#x2011;" horiz-adv-x="927" d="M758 549h-637l22 162h637z" />
<glyph unicode="&#x2012;" horiz-adv-x="927" d="M758 549h-637l22 162h637z" />
<glyph unicode="&#x2013;" horiz-adv-x="1140" d="M995 549h-897l23 162h897z" />
<glyph unicode="&#x2014;" horiz-adv-x="1458" d="M1313 549h-1215l23 162h1214z" />
<glyph unicode="&#x2018;" horiz-adv-x="479" d="M379 1456l96 -100q-107 -78 -127 -238l-4 -20q-3 -32 -29 -66q-33 -20 -63 -20q-44 0 -62 35q-26 23 -20 59l2 20q12 87 53 179q60 95 154 151z" />
<glyph unicode="&#x2019;" horiz-adv-x="479" d="M272 1323l2 18q3 32 29 66q33 20 64 20q44 0 61 -34q25 -19 18 -60l-2 -18q-13 -96 -53 -180q-57 -97 -151 -152l-97 100q106 77 129 240z" />
<glyph unicode="&#x201a;" horiz-adv-x="479" d="M100 111l4 20q3 34 29 64q33 20 64 20q43 0 61 -33q25 -16 18 -59l-2 -21q-14 -97 -53 -180q-60 -98 -151 -149l-97 100q107 75 127 238z" />
<glyph unicode="&#x201c;" horiz-adv-x="739" d="M383 1456l96 -100q-109 -79 -129 -238l-4 -20q-3 -35 -27 -66q-33 -20 -63 -20q-44 0 -61 35q-27 23 -21 59l2 20q12 87 53 179q55 92 154 151zM631 1456l96 -100q-107 -78 -127 -238l-4 -20q-3 -32 -29 -66q-33 -20 -63 -20q-44 0 -62 35q-26 23 -20 59l2 20 q13 90 55 179q56 94 152 151z" />
<glyph unicode="&#x201d;" horiz-adv-x="739" d="M281 1323l2 18q3 38 30 68q24 18 62 18q43 0 61 -32q26 -20 19 -62l-2 -18q-13 -93 -54 -180q-56 -95 -153 -152l-94 100q106 77 129 240zM528 1323l2 18q3 32 29 66q33 20 64 20q44 0 61 -34q28 -21 21 -60l-3 -18q-12 -90 -55 -180q-57 -97 -151 -152l-97 100 q106 77 129 240z" />
<glyph unicode="&#x201e;" horiz-adv-x="739" d="M109 111l4 20q3 38 28 66q27 18 64 18q20 0 36 -9.5t21 -23.5q13 -7 19.5 -24t3.5 -35l-2 -21q-13 -94 -54 -180q-59 -96 -153 -149l-94 100q107 75 127 238zM356 111l4 20q3 34 29 64q33 20 64 20q43 0 61 -33q12 -7 18 -24.5t3 -34.5l-3 -21q-13 -91 -55 -180 q-60 -98 -151 -149l-97 100q107 75 127 238z" />
<glyph unicode="&#x2022;" horiz-adv-x="620" d="M319 840q74 0 125.5 -51.5t51.5 -124.5q0 -84 -65 -147.5t-148 -63.5q-73 0 -125 51t-52 123q0 83 65 148t148 65z" />
<glyph unicode="&#x2026;" horiz-adv-x="1114" d="M117 229q42 0 72 -30t30 -72t-37 -77.5t-80 -35.5q-41 0 -69.5 30.5t-28.5 70.5q0 44 35.5 79t77.5 35zM434 229q42 0 72.5 -30.5t30.5 -71.5q0 -42 -37 -77.5t-80 -35.5q-41 0 -69.5 30.5t-28.5 70.5q0 44 35 79t77 35zM752 229q42 0 72 -30t30 -72t-37 -77.5t-80 -35.5 q-41 0 -69.5 30.5t-28.5 70.5q0 44 35.5 79t77.5 35z" />
<glyph unicode="&#x202f;" horiz-adv-x="382" />
<glyph unicode="&#x2039;" horiz-adv-x="815" d="M731 899l-479 -377l373 -379l-117 -116l-373 383q-69 69 -61 120q6 42 84 107l481 379z" />
<glyph unicode="&#x203a;" horiz-adv-x="815" d="M252 1016l373 -383q29 -32 41 -62q18 -18 18 -45q0 -51 -84 -120l-479 -379l-94 116l481 379l-375 377z" />
<glyph unicode="&#x205f;" horiz-adv-x="478" />
<glyph unicode="&#x20ac;" horiz-adv-x="1253" d="M174 840l133 4q25 102 72 205q50 94 130 168.5t175 113.5q115 35 246 35q75 0 231 -41l-14 -158q-109 41 -236 41q-105 0 -166 -30q-147 -47 -215 -203q-32 -55 -57 -135h494l-47 -152h-476l-10 -67h465l-43 -156h-426q6 -151 74 -242q44 -44 97.5 -66t141.5 -22 q90 0 156.5 24t157.5 81l65 -134q-90 -68 -182 -97t-203 -29q-247 0 -364 147q-110 117 -113 346l-170 -4l53 152h123l10 67h-155z" />
<glyph unicode="&#x2122;" horiz-adv-x="1290" d="M631 1167h-164l-72 -512h-129l72 512h-168l16 117h461zM1167 653h-127l52 357l-166 -336h-117l-66 327l-51 -348h-127l88 631h154l84 -414l209 414h155z" />
<glyph unicode="&#x25fc;" horiz-adv-x="1044" d="M0 1044h1044v-1044h-1044v1044z" />
<glyph unicode="&#xfb03;" horiz-adv-x="1540" d="M-35 -518l207 1462q31 232 115 356q57 75 137.5 111.5t167.5 36.5q142 0 223 -78l45 35q74 43 170 43q80 0 149 -39t97 -92l-133 -111q-6 38 -40.5 64t-80.5 26q-102 0 -162 -110q-51 -75 -74 -244l-2 -2h533l-107 -762v-10q0 -8 7 -25q10 -8 26 -8q19 0 30 9t27 36 l125 -94q-38 -54 -90 -86q-55 -20 -98 -20q-93 0 -139 65q-43 43 -43 111q0 20 2 30l84 602h-377l-184 -1306h-158l184 1306h-301l-184 -1306h-156zM672 1141l37 104q-28 51 -125 51q-121 0 -181 -110q-52 -76 -75 -244l-2 -4h301l2 6q10 84 43 197z" />
<glyph unicode="&#xfb04;" horiz-adv-x="1646" d="M-31 -518l207 1462q30 224 115 356q107 142 284 142q84 0 149 -31.5t99 -93.5l-131 -111q-23 84 -119 84q-113 0 -167 -112q-53 -89 -78 -256l-54 -377h377l60 416q31 233 110 346q53 66 128 98.5t157 32.5q144 0 217 -90q59 -62 59 -166q0 -27 -2 -39l-135 -963v-12 q0 -11 4 -23q12 -8 27 -8q24 0 47 23l33 4l104 -76q-28 -43 -92 -88q-46 -18 -98 -18q-85 0 -137 63q-46 43 -46 115q0 13 3 28l135 959q6 67 -27.5 103t-97.5 36q-90 0 -146.5 -63t-70.5 -166l-76 -512h295l-21 -150h-295l-129 -917h-155l129 917h-377l-129 -913h-156z" />
</font>
</defs>
</svg>
